<mxfile host="Electron" agent="Mozilla/5.0 (Windows NT 10.0; Win64; x64) AppleWebKit/537.36 (KHTML, like Gecko) draw.io/26.1.1 Chrome/132.0.6834.210 Electron/34.3.3 Safari/537.36" version="26.1.1" pages="11">
  <diagram id="Sg7Krsvvgz2W7sg4IDBj" name="Design-2">
    <mxGraphModel dx="1644" dy="518" grid="1" gridSize="10" guides="1" tooltips="1" connect="1" arrows="1" fold="1" page="1" pageScale="1" pageWidth="850" pageHeight="1100" math="0" shadow="0">
      <root>
        <mxCell id="0" />
        <mxCell id="1" parent="0" />
        <mxCell id="Oz4oyudCZRIBbPfh1oYi-1" style="edgeStyle=orthogonalEdgeStyle;rounded=0;orthogonalLoop=1;jettySize=auto;html=1;entryX=1;entryY=0.5;entryDx=0;entryDy=0;dashed=1;dashPattern=8 8;" parent="1" source="Oz4oyudCZRIBbPfh1oYi-3" target="Oz4oyudCZRIBbPfh1oYi-7" edge="1">
          <mxGeometry relative="1" as="geometry">
            <Array as="points">
              <mxPoint x="540" y="230" />
            </Array>
            <mxPoint x="560" y="230" as="targetPoint" />
          </mxGeometry>
        </mxCell>
        <mxCell id="Oz4oyudCZRIBbPfh1oYi-2" style="edgeStyle=orthogonalEdgeStyle;rounded=0;orthogonalLoop=1;jettySize=auto;html=1;exitX=0.5;exitY=1;exitDx=0;exitDy=0;entryX=1;entryY=0.5;entryDx=0;entryDy=0;startArrow=classic;startFill=1;dashed=1;dashPattern=8 8;" parent="1" source="Oz4oyudCZRIBbPfh1oYi-3" target="Oz4oyudCZRIBbPfh1oYi-11" edge="1">
          <mxGeometry relative="1" as="geometry">
            <mxPoint x="560" y="470" as="targetPoint" />
          </mxGeometry>
        </mxCell>
        <mxCell id="Oz4oyudCZRIBbPfh1oYi-3" value="Scraping Agents" style="rounded=0;whiteSpace=wrap;html=1;dashed=1;" parent="1" vertex="1">
          <mxGeometry x="480" y="320" width="120" height="60" as="geometry" />
        </mxCell>
        <mxCell id="Oz4oyudCZRIBbPfh1oYi-6" style="edgeStyle=orthogonalEdgeStyle;rounded=0;orthogonalLoop=1;jettySize=auto;html=1;entryX=0.5;entryY=1;entryDx=0;entryDy=0;startArrow=classic;startFill=1;" parent="1" source="Oz4oyudCZRIBbPfh1oYi-7" target="Oz4oyudCZRIBbPfh1oYi-9" edge="1">
          <mxGeometry relative="1" as="geometry" />
        </mxCell>
        <mxCell id="Oz4oyudCZRIBbPfh1oYi-7" value="DetectionService" style="rounded=0;whiteSpace=wrap;html=1;dashed=1;" parent="1" vertex="1">
          <mxGeometry x="250" y="200" width="120" height="60" as="geometry" />
        </mxCell>
        <mxCell id="Oz4oyudCZRIBbPfh1oYi-8" style="edgeStyle=orthogonalEdgeStyle;rounded=0;orthogonalLoop=1;jettySize=auto;html=1;startArrow=classic;startFill=1;" parent="1" source="Oz4oyudCZRIBbPfh1oYi-9" target="Oz4oyudCZRIBbPfh1oYi-10" edge="1">
          <mxGeometry relative="1" as="geometry" />
        </mxCell>
        <mxCell id="Oz4oyudCZRIBbPfh1oYi-9" value="Location Inference Service" style="rounded=0;whiteSpace=wrap;html=1;" parent="1" vertex="1">
          <mxGeometry x="250" y="90" width="120" height="60" as="geometry" />
        </mxCell>
        <mxCell id="Oz4oyudCZRIBbPfh1oYi-10" value="LLM" style="rounded=0;whiteSpace=wrap;html=1;" parent="1" vertex="1">
          <mxGeometry x="400" y="20" width="120" height="60" as="geometry" />
        </mxCell>
        <mxCell id="Oz4oyudCZRIBbPfh1oYi-11" value="Scraping Manager" style="rounded=0;whiteSpace=wrap;html=1;" parent="1" vertex="1">
          <mxGeometry x="250" y="440" width="120" height="60" as="geometry" />
        </mxCell>
        <mxCell id="Oz4oyudCZRIBbPfh1oYi-12" value="Identity Service" style="rounded=0;whiteSpace=wrap;html=1;" parent="1" vertex="1">
          <mxGeometry x="250" y="360" width="120" height="60" as="geometry" />
        </mxCell>
        <mxCell id="Oz4oyudCZRIBbPfh1oYi-13" value="Events Service" style="rounded=0;whiteSpace=wrap;html=1;" parent="1" vertex="1">
          <mxGeometry x="250" y="280" width="120" height="60" as="geometry" />
        </mxCell>
        <mxCell id="Oz4oyudCZRIBbPfh1oYi-14" style="edgeStyle=orthogonalEdgeStyle;rounded=0;orthogonalLoop=1;jettySize=auto;html=1;startArrow=classic;startFill=1;" parent="1" source="Oz4oyudCZRIBbPfh1oYi-18" target="Oz4oyudCZRIBbPfh1oYi-7" edge="1">
          <mxGeometry relative="1" as="geometry">
            <Array as="points">
              <mxPoint x="160" y="330" />
              <mxPoint x="160" y="230" />
            </Array>
          </mxGeometry>
        </mxCell>
        <mxCell id="Oz4oyudCZRIBbPfh1oYi-15" style="edgeStyle=orthogonalEdgeStyle;rounded=0;orthogonalLoop=1;jettySize=auto;html=1;startArrow=classic;startFill=1;" parent="1" source="Oz4oyudCZRIBbPfh1oYi-18" target="Oz4oyudCZRIBbPfh1oYi-13" edge="1">
          <mxGeometry relative="1" as="geometry">
            <Array as="points">
              <mxPoint x="190" y="340" />
              <mxPoint x="190" y="310" />
            </Array>
          </mxGeometry>
        </mxCell>
        <mxCell id="Oz4oyudCZRIBbPfh1oYi-16" style="edgeStyle=orthogonalEdgeStyle;rounded=0;orthogonalLoop=1;jettySize=auto;html=1;entryX=0;entryY=0.5;entryDx=0;entryDy=0;startArrow=classic;startFill=1;" parent="1" source="Oz4oyudCZRIBbPfh1oYi-18" target="Oz4oyudCZRIBbPfh1oYi-12" edge="1">
          <mxGeometry relative="1" as="geometry">
            <Array as="points">
              <mxPoint x="190" y="360" />
              <mxPoint x="190" y="390" />
            </Array>
          </mxGeometry>
        </mxCell>
        <mxCell id="Oz4oyudCZRIBbPfh1oYi-17" style="edgeStyle=orthogonalEdgeStyle;rounded=0;orthogonalLoop=1;jettySize=auto;html=1;entryX=0;entryY=0.5;entryDx=0;entryDy=0;startArrow=classicThin;startFill=1;" parent="1" source="Oz4oyudCZRIBbPfh1oYi-18" target="Oz4oyudCZRIBbPfh1oYi-11" edge="1">
          <mxGeometry relative="1" as="geometry">
            <Array as="points">
              <mxPoint x="160" y="370" />
              <mxPoint x="160" y="470" />
            </Array>
          </mxGeometry>
        </mxCell>
        <mxCell id="Oz4oyudCZRIBbPfh1oYi-18" value="API Gateway" style="rounded=0;whiteSpace=wrap;html=1;" parent="1" vertex="1">
          <mxGeometry x="10" y="320" width="120" height="60" as="geometry" />
        </mxCell>
        <mxCell id="Oz4oyudCZRIBbPfh1oYi-21" style="edgeStyle=orthogonalEdgeStyle;rounded=0;orthogonalLoop=1;jettySize=auto;html=1;exitX=1;exitY=0.5;exitDx=0;exitDy=0;startArrow=classic;startFill=1;" parent="1" source="Oz4oyudCZRIBbPfh1oYi-22" target="Oz4oyudCZRIBbPfh1oYi-18" edge="1">
          <mxGeometry relative="1" as="geometry" />
        </mxCell>
        <mxCell id="Oz4oyudCZRIBbPfh1oYi-22" value="Client" style="rounded=0;whiteSpace=wrap;html=1;" parent="1" vertex="1">
          <mxGeometry x="-260" y="320" width="120" height="60" as="geometry" />
        </mxCell>
        <mxCell id="Oz4oyudCZRIBbPfh1oYi-23" style="edgeStyle=orthogonalEdgeStyle;rounded=0;orthogonalLoop=1;jettySize=auto;html=1;exitX=1;exitY=0.5;exitDx=0;exitDy=0;startArrow=classic;startFill=1;" parent="1" edge="1">
          <mxGeometry relative="1" as="geometry">
            <mxPoint x="-260" y="149" as="sourcePoint" />
            <mxPoint x="-110" y="149" as="targetPoint" />
          </mxGeometry>
        </mxCell>
        <mxCell id="Oz4oyudCZRIBbPfh1oYi-24" value="Request / Response" style="text;html=1;align=center;verticalAlign=middle;resizable=0;points=[];autosize=1;strokeColor=none;fillColor=none;" parent="1" vertex="1">
          <mxGeometry x="-265" y="117" width="130" height="30" as="geometry" />
        </mxCell>
        <mxCell id="Oz4oyudCZRIBbPfh1oYi-25" style="edgeStyle=orthogonalEdgeStyle;rounded=0;orthogonalLoop=1;jettySize=auto;html=1;exitX=1;exitY=0.5;exitDx=0;exitDy=0;startArrow=classic;startFill=1;dashed=1;dashPattern=8 8;" parent="1" edge="1">
          <mxGeometry relative="1" as="geometry">
            <mxPoint x="-260" y="99" as="sourcePoint" />
            <mxPoint x="-110" y="99" as="targetPoint" />
          </mxGeometry>
        </mxCell>
        <mxCell id="Oz4oyudCZRIBbPfh1oYi-26" value="Messaging Via Queues" style="text;html=1;align=center;verticalAlign=middle;resizable=0;points=[];autosize=1;strokeColor=none;fillColor=none;" parent="1" vertex="1">
          <mxGeometry x="-260" y="59" width="150" height="30" as="geometry" />
        </mxCell>
        <mxCell id="Oz4oyudCZRIBbPfh1oYi-27" value="" style="rounded=0;whiteSpace=wrap;html=1;dashed=1;" parent="1" vertex="1">
          <mxGeometry x="-260" y="180" width="50" height="40" as="geometry" />
        </mxCell>
        <mxCell id="Oz4oyudCZRIBbPfh1oYi-28" value="Distributed Service" style="text;html=1;align=center;verticalAlign=middle;resizable=0;points=[];autosize=1;strokeColor=none;fillColor=none;" parent="1" vertex="1">
          <mxGeometry x="-210" y="185" width="120" height="30" as="geometry" />
        </mxCell>
      </root>
    </mxGraphModel>
  </diagram>
  <diagram id="PB7iw7xGRA4rZxJV00NE" name="Design-3">
    <mxGraphModel dx="1630" dy="503" grid="1" gridSize="10" guides="1" tooltips="1" connect="1" arrows="1" fold="1" page="1" pageScale="1" pageWidth="850" pageHeight="1100" math="0" shadow="0">
      <root>
        <mxCell id="0" />
        <mxCell id="1" parent="0" />
        <mxCell id="SQn4vwuGkOWIh6fpIDfU-1" style="edgeStyle=orthogonalEdgeStyle;rounded=0;orthogonalLoop=1;jettySize=auto;html=1;dashed=1;dashPattern=8 8;" edge="1" parent="1" source="SQn4vwuGkOWIh6fpIDfU-3" target="SQn4vwuGkOWIh6fpIDfU-5">
          <mxGeometry relative="1" as="geometry">
            <Array as="points" />
            <mxPoint x="560" y="230" as="targetPoint" />
          </mxGeometry>
        </mxCell>
        <mxCell id="SQn4vwuGkOWIh6fpIDfU-2" style="edgeStyle=orthogonalEdgeStyle;rounded=0;orthogonalLoop=1;jettySize=auto;html=1;exitX=0.5;exitY=1;exitDx=0;exitDy=0;entryX=1;entryY=0.5;entryDx=0;entryDy=0;startArrow=classic;startFill=1;dashed=1;dashPattern=8 8;" edge="1" parent="1" source="SQn4vwuGkOWIh6fpIDfU-3" target="SQn4vwuGkOWIh6fpIDfU-9">
          <mxGeometry relative="1" as="geometry">
            <mxPoint x="560" y="470" as="targetPoint" />
          </mxGeometry>
        </mxCell>
        <mxCell id="SQn4vwuGkOWIh6fpIDfU-3" value="Scraping Agents" style="rounded=0;whiteSpace=wrap;html=1;dashed=1;" vertex="1" parent="1">
          <mxGeometry x="425" y="360" width="120" height="60" as="geometry" />
        </mxCell>
        <mxCell id="SQn4vwuGkOWIh6fpIDfU-4" style="edgeStyle=orthogonalEdgeStyle;rounded=0;orthogonalLoop=1;jettySize=auto;html=1;startArrow=classic;startFill=1;" edge="1" parent="1" source="SQn4vwuGkOWIh6fpIDfU-5" target="SQn4vwuGkOWIh6fpIDfU-7">
          <mxGeometry relative="1" as="geometry">
            <Array as="points">
              <mxPoint x="480" y="180" />
            </Array>
          </mxGeometry>
        </mxCell>
        <mxCell id="SQn4vwuGkOWIh6fpIDfU-5" value="DetectionService" style="rounded=0;whiteSpace=wrap;html=1;dashed=1;" vertex="1" parent="1">
          <mxGeometry x="425" y="250" width="120" height="60" as="geometry" />
        </mxCell>
        <mxCell id="SQn4vwuGkOWIh6fpIDfU-6" style="edgeStyle=orthogonalEdgeStyle;rounded=0;orthogonalLoop=1;jettySize=auto;html=1;startArrow=classic;startFill=1;" edge="1" parent="1" source="SQn4vwuGkOWIh6fpIDfU-7" target="SQn4vwuGkOWIh6fpIDfU-8">
          <mxGeometry relative="1" as="geometry">
            <Array as="points">
              <mxPoint x="320" y="100" />
              <mxPoint x="485" y="100" />
            </Array>
          </mxGeometry>
        </mxCell>
        <mxCell id="SQn4vwuGkOWIh6fpIDfU-7" value="Location Inference Service" style="rounded=0;whiteSpace=wrap;html=1;" vertex="1" parent="1">
          <mxGeometry x="240" y="155" width="120" height="60" as="geometry" />
        </mxCell>
        <mxCell id="SQn4vwuGkOWIh6fpIDfU-8" value="LLM" style="rounded=0;whiteSpace=wrap;html=1;" vertex="1" parent="1">
          <mxGeometry x="420" y="70" width="120" height="60" as="geometry" />
        </mxCell>
        <mxCell id="SQn4vwuGkOWIh6fpIDfU-9" value="Scraping Manager" style="rounded=0;whiteSpace=wrap;html=1;" vertex="1" parent="1">
          <mxGeometry x="250" y="440" width="120" height="60" as="geometry" />
        </mxCell>
        <mxCell id="SQn4vwuGkOWIh6fpIDfU-10" value="Identity Service" style="rounded=0;whiteSpace=wrap;html=1;" vertex="1" parent="1">
          <mxGeometry x="250" y="360" width="120" height="60" as="geometry" />
        </mxCell>
        <mxCell id="SQn4vwuGkOWIh6fpIDfU-11" value="Events Service" style="rounded=0;whiteSpace=wrap;html=1;" vertex="1" parent="1">
          <mxGeometry x="240" y="250" width="120" height="60" as="geometry" />
        </mxCell>
        <mxCell id="SQn4vwuGkOWIh6fpIDfU-12" style="edgeStyle=orthogonalEdgeStyle;rounded=0;orthogonalLoop=1;jettySize=auto;html=1;startArrow=classic;startFill=1;" edge="1" parent="1" source="SQn4vwuGkOWIh6fpIDfU-11" target="SQn4vwuGkOWIh6fpIDfU-5">
          <mxGeometry relative="1" as="geometry">
            <Array as="points" />
          </mxGeometry>
        </mxCell>
        <mxCell id="SQn4vwuGkOWIh6fpIDfU-13" style="edgeStyle=orthogonalEdgeStyle;rounded=0;orthogonalLoop=1;jettySize=auto;html=1;startArrow=classic;startFill=1;" edge="1" parent="1" source="SQn4vwuGkOWIh6fpIDfU-16" target="SQn4vwuGkOWIh6fpIDfU-11">
          <mxGeometry relative="1" as="geometry">
            <Array as="points">
              <mxPoint x="190" y="340" />
              <mxPoint x="190" y="280" />
            </Array>
          </mxGeometry>
        </mxCell>
        <mxCell id="SQn4vwuGkOWIh6fpIDfU-14" style="edgeStyle=orthogonalEdgeStyle;rounded=0;orthogonalLoop=1;jettySize=auto;html=1;entryX=0;entryY=0.5;entryDx=0;entryDy=0;startArrow=classic;startFill=1;" edge="1" parent="1" source="SQn4vwuGkOWIh6fpIDfU-16" target="SQn4vwuGkOWIh6fpIDfU-10">
          <mxGeometry relative="1" as="geometry">
            <Array as="points">
              <mxPoint x="190" y="360" />
              <mxPoint x="190" y="390" />
            </Array>
          </mxGeometry>
        </mxCell>
        <mxCell id="SQn4vwuGkOWIh6fpIDfU-15" style="edgeStyle=orthogonalEdgeStyle;rounded=0;orthogonalLoop=1;jettySize=auto;html=1;entryX=0;entryY=0.5;entryDx=0;entryDy=0;startArrow=classicThin;startFill=1;" edge="1" parent="1" source="SQn4vwuGkOWIh6fpIDfU-16" target="SQn4vwuGkOWIh6fpIDfU-9">
          <mxGeometry relative="1" as="geometry">
            <Array as="points">
              <mxPoint x="160" y="370" />
              <mxPoint x="160" y="470" />
            </Array>
          </mxGeometry>
        </mxCell>
        <mxCell id="SQn4vwuGkOWIh6fpIDfU-16" value="API Gateway" style="rounded=0;whiteSpace=wrap;html=1;" vertex="1" parent="1">
          <mxGeometry x="10" y="320" width="120" height="60" as="geometry" />
        </mxCell>
        <mxCell id="SQn4vwuGkOWIh6fpIDfU-17" style="edgeStyle=orthogonalEdgeStyle;rounded=0;orthogonalLoop=1;jettySize=auto;html=1;exitX=1;exitY=0.5;exitDx=0;exitDy=0;startArrow=classic;startFill=1;" edge="1" parent="1" source="SQn4vwuGkOWIh6fpIDfU-18" target="SQn4vwuGkOWIh6fpIDfU-16">
          <mxGeometry relative="1" as="geometry" />
        </mxCell>
        <mxCell id="SQn4vwuGkOWIh6fpIDfU-18" value="Client" style="rounded=0;whiteSpace=wrap;html=1;" vertex="1" parent="1">
          <mxGeometry x="-260" y="320" width="120" height="60" as="geometry" />
        </mxCell>
        <mxCell id="SQn4vwuGkOWIh6fpIDfU-19" style="edgeStyle=orthogonalEdgeStyle;rounded=0;orthogonalLoop=1;jettySize=auto;html=1;exitX=1;exitY=0.5;exitDx=0;exitDy=0;startArrow=classic;startFill=1;" edge="1" parent="1">
          <mxGeometry relative="1" as="geometry">
            <mxPoint x="-260" y="149" as="sourcePoint" />
            <mxPoint x="-110" y="149" as="targetPoint" />
          </mxGeometry>
        </mxCell>
        <mxCell id="SQn4vwuGkOWIh6fpIDfU-20" value="Request / Response" style="text;html=1;align=center;verticalAlign=middle;resizable=0;points=[];autosize=1;strokeColor=none;fillColor=none;" vertex="1" parent="1">
          <mxGeometry x="-265" y="117" width="130" height="30" as="geometry" />
        </mxCell>
        <mxCell id="SQn4vwuGkOWIh6fpIDfU-21" style="edgeStyle=orthogonalEdgeStyle;rounded=0;orthogonalLoop=1;jettySize=auto;html=1;exitX=1;exitY=0.5;exitDx=0;exitDy=0;startArrow=classic;startFill=1;dashed=1;dashPattern=8 8;" edge="1" parent="1">
          <mxGeometry relative="1" as="geometry">
            <mxPoint x="-260" y="99" as="sourcePoint" />
            <mxPoint x="-110" y="99" as="targetPoint" />
          </mxGeometry>
        </mxCell>
        <mxCell id="SQn4vwuGkOWIh6fpIDfU-22" value="Messaging Via Queues" style="text;html=1;align=center;verticalAlign=middle;resizable=0;points=[];autosize=1;strokeColor=none;fillColor=none;" vertex="1" parent="1">
          <mxGeometry x="-260" y="59" width="150" height="30" as="geometry" />
        </mxCell>
        <mxCell id="SQn4vwuGkOWIh6fpIDfU-23" value="" style="rounded=0;whiteSpace=wrap;html=1;dashed=1;" vertex="1" parent="1">
          <mxGeometry x="-260" y="180" width="50" height="40" as="geometry" />
        </mxCell>
        <mxCell id="SQn4vwuGkOWIh6fpIDfU-24" value="Distributed Service" style="text;html=1;align=center;verticalAlign=middle;resizable=0;points=[];autosize=1;strokeColor=none;fillColor=none;" vertex="1" parent="1">
          <mxGeometry x="-210" y="185" width="120" height="30" as="geometry" />
        </mxCell>
      </root>
    </mxGraphModel>
  </diagram>
  <diagram id="VO64IXPt5ZR6Nmi-9mvp" name="scaper">
    <mxGraphModel dx="1644" dy="518" grid="1" gridSize="10" guides="1" tooltips="1" connect="1" arrows="1" fold="1" page="1" pageScale="1" pageWidth="850" pageHeight="1100" math="0" shadow="0">
      <root>
        <mxCell id="0" />
        <mxCell id="1" parent="0" />
        <mxCell id="oBuQa49dZK_YYX83tXYS-5" style="edgeStyle=orthogonalEdgeStyle;rounded=0;orthogonalLoop=1;jettySize=auto;html=1;entryX=0;entryY=0.5;entryDx=0;entryDy=0;endArrow=ERmany;endFill=0;" parent="1" source="oBuQa49dZK_YYX83tXYS-1" target="oBuQa49dZK_YYX83tXYS-4" edge="1">
          <mxGeometry relative="1" as="geometry">
            <Array as="points">
              <mxPoint x="450" y="260" />
              <mxPoint x="450" y="260" />
            </Array>
          </mxGeometry>
        </mxCell>
        <mxCell id="oBuQa49dZK_YYX83tXYS-1" value="Domain" style="rounded=0;whiteSpace=wrap;html=1;" parent="1" vertex="1">
          <mxGeometry x="280" y="230" width="120" height="60" as="geometry" />
        </mxCell>
        <mxCell id="oBuQa49dZK_YYX83tXYS-9" style="edgeStyle=orthogonalEdgeStyle;rounded=0;orthogonalLoop=1;jettySize=auto;html=1;endArrow=ERmany;endFill=0;" parent="1" source="oBuQa49dZK_YYX83tXYS-3" target="oBuQa49dZK_YYX83tXYS-8" edge="1">
          <mxGeometry relative="1" as="geometry" />
        </mxCell>
        <mxCell id="oBuQa49dZK_YYX83tXYS-3" value="Platform" style="rounded=0;whiteSpace=wrap;html=1;" parent="1" vertex="1">
          <mxGeometry x="680" y="230" width="120" height="60" as="geometry" />
        </mxCell>
        <mxCell id="oBuQa49dZK_YYX83tXYS-6" style="edgeStyle=orthogonalEdgeStyle;rounded=0;orthogonalLoop=1;jettySize=auto;html=1;exitX=1;exitY=0.5;exitDx=0;exitDy=0;endArrow=none;startFill=0;startArrow=ERmany;" parent="1" source="oBuQa49dZK_YYX83tXYS-4" target="oBuQa49dZK_YYX83tXYS-3" edge="1">
          <mxGeometry relative="1" as="geometry" />
        </mxCell>
        <mxCell id="oBuQa49dZK_YYX83tXYS-4" value="Data Source" style="rounded=0;whiteSpace=wrap;html=1;" parent="1" vertex="1">
          <mxGeometry x="490" y="230" width="120" height="60" as="geometry" />
        </mxCell>
        <mxCell id="oBuQa49dZK_YYX83tXYS-8" value="Credential" style="rounded=0;whiteSpace=wrap;html=1;" parent="1" vertex="1">
          <mxGeometry x="880" y="230" width="120" height="60" as="geometry" />
        </mxCell>
        <mxCell id="oBuQa49dZK_YYX83tXYS-10" value="Task" style="rounded=0;whiteSpace=wrap;html=1;" parent="1" vertex="1">
          <mxGeometry x="490" y="390" width="120" height="60" as="geometry" />
        </mxCell>
        <mxCell id="oBuQa49dZK_YYX83tXYS-13" style="edgeStyle=orthogonalEdgeStyle;rounded=0;orthogonalLoop=1;jettySize=auto;html=1;endArrow=none;startFill=0;startArrow=ERmany;" parent="1" source="oBuQa49dZK_YYX83tXYS-12" target="oBuQa49dZK_YYX83tXYS-1" edge="1">
          <mxGeometry relative="1" as="geometry" />
        </mxCell>
        <mxCell id="oBuQa49dZK_YYX83tXYS-14" style="edgeStyle=orthogonalEdgeStyle;rounded=0;orthogonalLoop=1;jettySize=auto;html=1;exitX=1;exitY=0.5;exitDx=0;exitDy=0;endArrow=ERmany;endFill=0;" parent="1" source="oBuQa49dZK_YYX83tXYS-12" target="oBuQa49dZK_YYX83tXYS-10" edge="1">
          <mxGeometry relative="1" as="geometry">
            <Array as="points" />
          </mxGeometry>
        </mxCell>
        <mxCell id="oBuQa49dZK_YYX83tXYS-12" value="Scraper" style="rounded=0;whiteSpace=wrap;html=1;" parent="1" vertex="1">
          <mxGeometry x="280" y="390" width="120" height="60" as="geometry" />
        </mxCell>
        <mxCell id="ExPfziakMb4Mv9563HQr-11" style="edgeStyle=orthogonalEdgeStyle;rounded=0;orthogonalLoop=1;jettySize=auto;html=1;endArrow=none;startFill=0;dashed=1;" parent="1" source="RZb9ln5fDCh2Zn4Isq-3-1" target="oBuQa49dZK_YYX83tXYS-12" edge="1">
          <mxGeometry relative="1" as="geometry" />
        </mxCell>
        <mxCell id="RZb9ln5fDCh2Zn4Isq-3-1" value="&lt;span style=&quot;background-color: transparent; color: light-dark(rgb(0, 0, 0), rgb(237, 237, 237)); text-wrap-mode: nowrap;&quot;&gt;&amp;nbsp; &amp;nbsp; &amp;nbsp; The scrapig agent,&amp;nbsp;&lt;/span&gt;&lt;span style=&quot;background-color: transparent; color: light-dark(rgb(0, 0, 0), rgb(255, 255, 255)); text-wrap-mode: nowrap;&quot;&gt;are&amp;nbsp;&lt;/span&gt;&lt;span style=&quot;background-color: transparent; color: light-dark(rgb(0, 0, 0), rgb(255, 255, 255)); text-wrap-mode: nowrap;&quot;&gt;connected&lt;/span&gt;&lt;div&gt;&lt;span style=&quot;background-color: transparent; color: light-dark(rgb(0, 0, 0), rgb(255, 255, 255)); text-wrap-mode: nowrap;&quot;&gt;&amp;nbsp; &amp;nbsp; &amp;nbsp; to a specific domain&amp;nbsp;&lt;/span&gt;&lt;span style=&quot;background-color: transparent; color: light-dark(rgb(0, 0, 0), rgb(255, 255, 255)); text-wrap-mode: nowrap;&quot;&gt;and take a tasks&amp;nbsp;&lt;/span&gt;&lt;/div&gt;" style="shape=note;whiteSpace=wrap;html=1;backgroundOutline=1;fontColor=#000000;darkOpacity=0.05;fillColor=#FFF9B2;strokeColor=none;fillStyle=solid;direction=west;gradientDirection=north;gradientColor=#FFF2A1;shadow=1;size=20;pointerEvents=1;align=left;" vertex="1" parent="1">
          <mxGeometry x="-50" y="480" width="240" height="60" as="geometry" />
        </mxCell>
        <mxCell id="RZb9ln5fDCh2Zn4Isq-3-4" value="" style="edgeStyle=orthogonalEdgeStyle;rounded=0;orthogonalLoop=1;jettySize=auto;html=1;entryX=0.503;entryY=0.9;entryDx=0;entryDy=0;entryPerimeter=0;endArrow=none;startFill=0;dashed=1;" edge="1" parent="1" source="oBuQa49dZK_YYX83tXYS-1" target="RZb9ln5fDCh2Zn4Isq-3-3">
          <mxGeometry relative="1" as="geometry">
            <mxPoint x="340" y="230" as="sourcePoint" />
            <mxPoint x="166" y="146" as="targetPoint" />
            <Array as="points">
              <mxPoint x="104" y="260" />
            </Array>
          </mxGeometry>
        </mxCell>
        <mxCell id="RZb9ln5fDCh2Zn4Isq-3-3" value="&lt;span style=&quot;text-wrap-mode: nowrap;&quot;&gt;&amp;nbsp; &amp;nbsp; &amp;nbsp; &amp;nbsp; A Domain like political, sports, etc.&amp;nbsp;&lt;/span&gt;" style="shape=note;whiteSpace=wrap;html=1;backgroundOutline=1;fontColor=#000000;darkOpacity=0.05;fillColor=#FFF9B2;strokeColor=none;fillStyle=solid;direction=west;gradientDirection=north;gradientColor=#FFF2A1;shadow=1;size=20;pointerEvents=1;align=left;" vertex="1" parent="1">
          <mxGeometry x="-10" y="170" width="230" height="50" as="geometry" />
        </mxCell>
        <mxCell id="RZb9ln5fDCh2Zn4Isq-3-5" value="&lt;span style=&quot;text-wrap-mode: nowrap;&quot;&gt;&amp;nbsp; &amp;nbsp; &amp;nbsp; A Data Source like channel, user, etc.&lt;/span&gt;" style="shape=note;whiteSpace=wrap;html=1;backgroundOutline=1;fontColor=#000000;darkOpacity=0.05;fillColor=#FFF9B2;strokeColor=none;fillStyle=solid;direction=west;gradientDirection=north;gradientColor=#FFF2A1;shadow=1;size=20;pointerEvents=1;align=left;" vertex="1" parent="1">
          <mxGeometry x="280" y="60" width="230" height="50" as="geometry" />
        </mxCell>
        <mxCell id="RZb9ln5fDCh2Zn4Isq-3-6" value="" style="edgeStyle=orthogonalEdgeStyle;rounded=0;orthogonalLoop=1;jettySize=auto;html=1;endArrow=none;startFill=0;dashed=1;" edge="1" parent="1" source="oBuQa49dZK_YYX83tXYS-4" target="RZb9ln5fDCh2Zn4Isq-3-5">
          <mxGeometry relative="1" as="geometry">
            <mxPoint x="550" y="241" as="sourcePoint" />
            <mxPoint x="124" y="135" as="targetPoint" />
            <Array as="points">
              <mxPoint x="530" y="140" />
              <mxPoint x="390" y="140" />
            </Array>
          </mxGeometry>
        </mxCell>
        <mxCell id="RZb9ln5fDCh2Zn4Isq-3-10" value="&lt;span style=&quot;text-wrap-mode: nowrap;&quot;&gt;&amp;nbsp; &amp;nbsp; &amp;nbsp; &amp;nbsp;A Task, contain sources to scrapes and&lt;/span&gt;&lt;div&gt;&lt;span style=&quot;text-wrap-mode: nowrap;&quot;&gt;&amp;nbsp; &amp;nbsp; &amp;nbsp; &amp;nbsp;belong to a do,aon&lt;/span&gt;&lt;/div&gt;" style="shape=note;whiteSpace=wrap;html=1;backgroundOutline=1;fontColor=#000000;darkOpacity=0.05;fillColor=#FFF9B2;strokeColor=none;fillStyle=solid;direction=west;gradientDirection=north;gradientColor=#FFF2A1;shadow=1;size=20;pointerEvents=1;align=left;" vertex="1" parent="1">
          <mxGeometry x="630" y="480" width="240" height="50" as="geometry" />
        </mxCell>
        <mxCell id="RZb9ln5fDCh2Zn4Isq-3-11" value="" style="edgeStyle=orthogonalEdgeStyle;rounded=0;orthogonalLoop=1;jettySize=auto;html=1;endArrow=none;startFill=0;dashed=1;" edge="1" parent="1" source="oBuQa49dZK_YYX83tXYS-10" target="RZb9ln5fDCh2Zn4Isq-3-10">
          <mxGeometry relative="1" as="geometry">
            <mxPoint x="290" y="270" as="sourcePoint" />
            <mxPoint x="114" y="185" as="targetPoint" />
            <Array as="points">
              <mxPoint x="730" y="420" />
            </Array>
          </mxGeometry>
        </mxCell>
      </root>
    </mxGraphModel>
  </diagram>
  <diagram id="ACnk7gxxfb5UJPoQTh96" name="scraper-2">
    <mxGraphModel dx="1644" dy="518" grid="1" gridSize="10" guides="1" tooltips="1" connect="1" arrows="1" fold="1" page="1" pageScale="1" pageWidth="850" pageHeight="1100" math="0" shadow="0">
      <root>
        <mxCell id="0" />
        <mxCell id="1" parent="0" />
        <mxCell id="KXoFXJsutDLczsB4isPm-1" style="edgeStyle=orthogonalEdgeStyle;rounded=0;orthogonalLoop=1;jettySize=auto;html=1;" parent="1" source="8gBJfRs-_Y69Qviby7Ew-2" target="ekSg0kZuBMyjNvLpVM8y-23" edge="1">
          <mxGeometry relative="1" as="geometry" />
        </mxCell>
        <mxCell id="8gBJfRs-_Y69Qviby7Ew-2" value="IScraper" style="rounded=0;whiteSpace=wrap;html=1;" parent="1" vertex="1">
          <mxGeometry x="600" y="580" width="120" height="60" as="geometry" />
        </mxCell>
        <mxCell id="ekSg0kZuBMyjNvLpVM8y-8" style="edgeStyle=orthogonalEdgeStyle;rounded=0;orthogonalLoop=1;jettySize=auto;html=1;endArrow=block;endFill=0;" parent="1" source="ekSg0kZuBMyjNvLpVM8y-1" target="8gBJfRs-_Y69Qviby7Ew-2" edge="1">
          <mxGeometry relative="1" as="geometry">
            <Array as="points">
              <mxPoint x="560" y="680" />
              <mxPoint x="620" y="680" />
            </Array>
          </mxGeometry>
        </mxCell>
        <mxCell id="ekSg0kZuBMyjNvLpVM8y-1" value="Telegram Web Scraper" style="rounded=0;whiteSpace=wrap;html=1;" parent="1" vertex="1">
          <mxGeometry x="500" y="720" width="90" height="60" as="geometry" />
        </mxCell>
        <mxCell id="ekSg0kZuBMyjNvLpVM8y-6" value="Twitter Scraper" style="rounded=0;whiteSpace=wrap;html=1;" parent="1" vertex="1">
          <mxGeometry x="720" y="720" width="90" height="60" as="geometry" />
        </mxCell>
        <mxCell id="ekSg0kZuBMyjNvLpVM8y-7" value="Telegram API Scraper" style="rounded=0;whiteSpace=wrap;html=1;" parent="1" vertex="1">
          <mxGeometry x="610" y="720" width="90" height="60" as="geometry" />
        </mxCell>
        <mxCell id="ekSg0kZuBMyjNvLpVM8y-13" style="edgeStyle=orthogonalEdgeStyle;rounded=0;orthogonalLoop=1;jettySize=auto;html=1;endArrow=none;startFill=0;endFill=0;startArrow=block;" parent="1" source="8gBJfRs-_Y69Qviby7Ew-2" edge="1">
          <mxGeometry relative="1" as="geometry">
            <mxPoint x="660" y="660" as="sourcePoint" />
            <mxPoint x="660" y="720" as="targetPoint" />
          </mxGeometry>
        </mxCell>
        <mxCell id="ekSg0kZuBMyjNvLpVM8y-16" style="edgeStyle=orthogonalEdgeStyle;rounded=0;orthogonalLoop=1;jettySize=auto;html=1;endArrow=none;startFill=0;entryX=0.415;entryY=0.05;entryDx=0;entryDy=0;entryPerimeter=0;endFill=0;startArrow=block;" parent="1" source="8gBJfRs-_Y69Qviby7Ew-2" target="ekSg0kZuBMyjNvLpVM8y-6" edge="1">
          <mxGeometry relative="1" as="geometry">
            <mxPoint x="660" y="680" as="sourcePoint" />
            <mxPoint x="760" y="710" as="targetPoint" />
            <Array as="points">
              <mxPoint x="700" y="680" />
              <mxPoint x="757" y="680" />
            </Array>
          </mxGeometry>
        </mxCell>
        <mxCell id="ekSg0kZuBMyjNvLpVM8y-28" style="edgeStyle=orthogonalEdgeStyle;rounded=0;orthogonalLoop=1;jettySize=auto;html=1;exitX=0;exitY=0.5;exitDx=0;exitDy=0;entryX=1;entryY=0.5;entryDx=0;entryDy=0;" parent="1" source="ekSg0kZuBMyjNvLpVM8y-22" target="ekSg0kZuBMyjNvLpVM8y-24" edge="1">
          <mxGeometry relative="1" as="geometry" />
        </mxCell>
        <mxCell id="ekSg0kZuBMyjNvLpVM8y-22" value="hate speach filtering" style="rounded=0;whiteSpace=wrap;html=1;" parent="1" vertex="1">
          <mxGeometry x="310" y="680" width="70" height="40" as="geometry" />
        </mxCell>
        <mxCell id="KXoFXJsutDLczsB4isPm-2" style="edgeStyle=orthogonalEdgeStyle;rounded=0;orthogonalLoop=1;jettySize=auto;html=1;" parent="1" source="ekSg0kZuBMyjNvLpVM8y-23" target="ekSg0kZuBMyjNvLpVM8y-32" edge="1">
          <mxGeometry relative="1" as="geometry" />
        </mxCell>
        <mxCell id="ekSg0kZuBMyjNvLpVM8y-23" value="Preprocesing Pipeline" style="rounded=0;whiteSpace=wrap;html=1;" parent="1" vertex="1">
          <mxGeometry x="230" y="580" width="120" height="60" as="geometry" />
        </mxCell>
        <mxCell id="ekSg0kZuBMyjNvLpVM8y-29" style="edgeStyle=orthogonalEdgeStyle;rounded=0;orthogonalLoop=1;jettySize=auto;html=1;exitX=0;exitY=0.5;exitDx=0;exitDy=0;entryX=1;entryY=0.5;entryDx=0;entryDy=0;" parent="1" source="ekSg0kZuBMyjNvLpVM8y-24" target="ekSg0kZuBMyjNvLpVM8y-25" edge="1">
          <mxGeometry relative="1" as="geometry" />
        </mxCell>
        <mxCell id="ekSg0kZuBMyjNvLpVM8y-24" value="sentiment analysis" style="rounded=0;whiteSpace=wrap;html=1;" parent="1" vertex="1">
          <mxGeometry x="220" y="680" width="70" height="40" as="geometry" />
        </mxCell>
        <mxCell id="ekSg0kZuBMyjNvLpVM8y-25" value="keyword filtering" style="rounded=0;whiteSpace=wrap;html=1;" parent="1" vertex="1">
          <mxGeometry x="130" y="680" width="70" height="40" as="geometry" />
        </mxCell>
        <mxCell id="ekSg0kZuBMyjNvLpVM8y-27" style="edgeStyle=orthogonalEdgeStyle;rounded=0;orthogonalLoop=1;jettySize=auto;html=1;exitX=0;exitY=0.5;exitDx=0;exitDy=0;entryX=1;entryY=0.5;entryDx=0;entryDy=0;" parent="1" source="ekSg0kZuBMyjNvLpVM8y-26" target="ekSg0kZuBMyjNvLpVM8y-22" edge="1">
          <mxGeometry relative="1" as="geometry" />
        </mxCell>
        <mxCell id="ekSg0kZuBMyjNvLpVM8y-26" value="text normalisation" style="rounded=0;whiteSpace=wrap;html=1;" parent="1" vertex="1">
          <mxGeometry x="400" y="680" width="70" height="40" as="geometry" />
        </mxCell>
        <mxCell id="ekSg0kZuBMyjNvLpVM8y-30" style="edgeStyle=orthogonalEdgeStyle;rounded=0;orthogonalLoop=1;jettySize=auto;html=1;exitX=0;exitY=0.5;exitDx=0;exitDy=0;entryX=1;entryY=0.5;entryDx=0;entryDy=0;" parent="1" source="ekSg0kZuBMyjNvLpVM8y-31" target="ekSg0kZuBMyjNvLpVM8y-34" edge="1">
          <mxGeometry relative="1" as="geometry" />
        </mxCell>
        <mxCell id="ekSg0kZuBMyjNvLpVM8y-31" value="log messages" style="rounded=0;whiteSpace=wrap;html=1;" parent="1" vertex="1">
          <mxGeometry x="-70" y="680" width="70" height="40" as="geometry" />
        </mxCell>
        <mxCell id="ekSg0kZuBMyjNvLpVM8y-32" value="Publishing Pipeline" style="rounded=0;whiteSpace=wrap;html=1;" parent="1" vertex="1">
          <mxGeometry x="-80" y="580" width="120" height="60" as="geometry" />
        </mxCell>
        <mxCell id="ekSg0kZuBMyjNvLpVM8y-34" value="notify master" style="rounded=0;whiteSpace=wrap;html=1;" parent="1" vertex="1">
          <mxGeometry x="-160" y="680" width="70" height="40" as="geometry" />
        </mxCell>
        <mxCell id="ekSg0kZuBMyjNvLpVM8y-36" style="edgeStyle=orthogonalEdgeStyle;rounded=0;orthogonalLoop=1;jettySize=auto;html=1;exitX=0;exitY=0.5;exitDx=0;exitDy=0;entryX=1;entryY=0.5;entryDx=0;entryDy=0;" parent="1" source="ekSg0kZuBMyjNvLpVM8y-37" target="ekSg0kZuBMyjNvLpVM8y-31" edge="1">
          <mxGeometry relative="1" as="geometry" />
        </mxCell>
        <mxCell id="ekSg0kZuBMyjNvLpVM8y-37" value="send message" style="rounded=0;whiteSpace=wrap;html=1;" parent="1" vertex="1">
          <mxGeometry x="20" y="680" width="70" height="40" as="geometry" />
        </mxCell>
      </root>
    </mxGraphModel>
  </diagram>
  <diagram id="7cCHo_wJxXREgPxLRbEJ" name="Scraping Work">
    <mxGraphModel dx="1644" dy="518" grid="1" gridSize="10" guides="1" tooltips="1" connect="1" arrows="1" fold="1" page="1" pageScale="1" pageWidth="850" pageHeight="1100" math="0" shadow="0">
      <root>
        <mxCell id="0" />
        <mxCell id="1" parent="0" />
        <mxCell id="cr0H7SXg2rbTsi27HJZL-28" value="" style="whiteSpace=wrap;html=1;fillColor=none;" vertex="1" parent="1">
          <mxGeometry x="220" y="200" width="150" height="180" as="geometry" />
        </mxCell>
        <mxCell id="cr0H7SXg2rbTsi27HJZL-1" value="Scraper" style="rounded=0;whiteSpace=wrap;html=1;" vertex="1" parent="1">
          <mxGeometry x="490" y="150" width="120" height="60" as="geometry" />
        </mxCell>
        <mxCell id="cr0H7SXg2rbTsi27HJZL-2" value="Scraper" style="rounded=0;whiteSpace=wrap;html=1;" vertex="1" parent="1">
          <mxGeometry x="490" y="250" width="120" height="60" as="geometry" />
        </mxCell>
        <mxCell id="cr0H7SXg2rbTsi27HJZL-3" value="Scraper" style="rounded=0;whiteSpace=wrap;html=1;" vertex="1" parent="1">
          <mxGeometry x="490" y="360" width="120" height="60" as="geometry" />
        </mxCell>
        <mxCell id="cr0H7SXg2rbTsi27HJZL-5" value="Scraper" style="rounded=0;whiteSpace=wrap;html=1;" vertex="1" parent="1">
          <mxGeometry x="500" y="260" width="120" height="60" as="geometry" />
        </mxCell>
        <mxCell id="cr0H7SXg2rbTsi27HJZL-6" value="Scraper" style="rounded=0;whiteSpace=wrap;html=1;" vertex="1" parent="1">
          <mxGeometry x="500" y="370" width="120" height="60" as="geometry" />
        </mxCell>
        <mxCell id="cr0H7SXg2rbTsi27HJZL-7" value="Scraper" style="rounded=0;whiteSpace=wrap;html=1;" vertex="1" parent="1">
          <mxGeometry x="500" y="160" width="120" height="60" as="geometry" />
        </mxCell>
        <mxCell id="cr0H7SXg2rbTsi27HJZL-8" value="The Scraper Produce to&amp;nbsp; Domain&lt;div&gt;&lt;br&gt;&lt;/div&gt;" style="text;html=1;align=center;verticalAlign=middle;resizable=0;points=[];autosize=1;strokeColor=#d6b656;fillColor=#fff2cc;" vertex="1" parent="1">
          <mxGeometry x="450" y="75" width="200" height="40" as="geometry" />
        </mxCell>
        <mxCell id="cr0H7SXg2rbTsi27HJZL-9" value="" style="shape=cylinder3;whiteSpace=wrap;html=1;boundedLbl=1;backgroundOutline=1;size=15;rotation=-90;" vertex="1" parent="1">
          <mxGeometry x="270" y="180" width="40" height="110" as="geometry" />
        </mxCell>
        <mxCell id="cr0H7SXg2rbTsi27HJZL-10" value="" style="shape=cylinder3;whiteSpace=wrap;html=1;boundedLbl=1;backgroundOutline=1;size=15;rotation=-90;" vertex="1" parent="1">
          <mxGeometry x="270" y="230" width="40" height="110" as="geometry" />
        </mxCell>
        <mxCell id="cr0H7SXg2rbTsi27HJZL-11" value="" style="shape=cylinder3;whiteSpace=wrap;html=1;boundedLbl=1;backgroundOutline=1;size=15;rotation=-90;" vertex="1" parent="1">
          <mxGeometry x="270" y="290" width="40" height="110" as="geometry" />
        </mxCell>
        <mxCell id="cr0H7SXg2rbTsi27HJZL-12" value="Kafka Queues&lt;div&gt;&lt;br&gt;&lt;/div&gt;" style="text;html=1;align=center;verticalAlign=middle;resizable=0;points=[];autosize=1;strokeColor=#d6b656;fillColor=#fff2cc;" vertex="1" parent="1">
          <mxGeometry x="240" y="75" width="100" height="40" as="geometry" />
        </mxCell>
        <mxCell id="cr0H7SXg2rbTsi27HJZL-13" value="Detection Service" style="rounded=0;whiteSpace=wrap;html=1;" vertex="1" parent="1">
          <mxGeometry y="150" width="120" height="60" as="geometry" />
        </mxCell>
        <mxCell id="cr0H7SXg2rbTsi27HJZL-14" value="Detection Service" style="rounded=0;whiteSpace=wrap;html=1;" vertex="1" parent="1">
          <mxGeometry y="255" width="120" height="60" as="geometry" />
        </mxCell>
        <mxCell id="cr0H7SXg2rbTsi27HJZL-15" value="Detection Service" style="rounded=0;whiteSpace=wrap;html=1;" vertex="1" parent="1">
          <mxGeometry y="360" width="120" height="60" as="geometry" />
        </mxCell>
        <mxCell id="cr0H7SXg2rbTsi27HJZL-19" value="&amp;nbsp; &amp;nbsp; &amp;nbsp;The Detecion Servic&lt;br&gt;&amp;nbsp; &amp;nbsp; &amp;nbsp; Consume&lt;span style=&quot;background-color: transparent; color: light-dark(rgb(0, 0, 0), rgb(255, 255, 255));&quot;&gt;&amp;nbsp;from Same domain&lt;/span&gt;" style="text;html=1;align=left;verticalAlign=middle;resizable=0;points=[];autosize=1;strokeColor=#d6b656;fillColor=#fff2cc;" vertex="1" parent="1">
          <mxGeometry x="-40" y="75" width="200" height="40" as="geometry" />
        </mxCell>
        <mxCell id="cr0H7SXg2rbTsi27HJZL-24" style="edgeStyle=orthogonalEdgeStyle;rounded=0;orthogonalLoop=1;jettySize=auto;html=1;exitX=0;exitY=0.5;exitDx=0;exitDy=0;dashed=1;dashPattern=8 8;" edge="1" parent="1" source="cr0H7SXg2rbTsi27HJZL-1" target="cr0H7SXg2rbTsi27HJZL-9">
          <mxGeometry relative="1" as="geometry">
            <Array as="points">
              <mxPoint x="400" y="180" />
              <mxPoint x="400" y="225" />
            </Array>
          </mxGeometry>
        </mxCell>
        <mxCell id="cr0H7SXg2rbTsi27HJZL-25" value="messages" style="text;html=1;align=center;verticalAlign=middle;resizable=0;points=[];autosize=1;strokeColor=none;fillColor=none;" vertex="1" parent="1">
          <mxGeometry x="390" y="158" width="80" height="30" as="geometry" />
        </mxCell>
        <mxCell id="cr0H7SXg2rbTsi27HJZL-26" style="edgeStyle=orthogonalEdgeStyle;rounded=0;orthogonalLoop=1;jettySize=auto;html=1;exitX=0;exitY=0.5;exitDx=0;exitDy=0;dashed=1;dashPattern=8 8;" edge="1" parent="1" source="cr0H7SXg2rbTsi27HJZL-2" target="cr0H7SXg2rbTsi27HJZL-10">
          <mxGeometry relative="1" as="geometry">
            <mxPoint x="500" y="190" as="sourcePoint" />
            <mxPoint x="360" y="235" as="targetPoint" />
            <Array as="points">
              <mxPoint x="490" y="285" />
            </Array>
          </mxGeometry>
        </mxCell>
        <mxCell id="cr0H7SXg2rbTsi27HJZL-27" style="edgeStyle=orthogonalEdgeStyle;rounded=0;orthogonalLoop=1;jettySize=auto;html=1;exitX=0;exitY=0.5;exitDx=0;exitDy=0;entryX=0.5;entryY=1;entryDx=0;entryDy=0;entryPerimeter=0;dashed=1;dashPattern=8 8;" edge="1" parent="1" source="cr0H7SXg2rbTsi27HJZL-3" target="cr0H7SXg2rbTsi27HJZL-11">
          <mxGeometry relative="1" as="geometry">
            <mxPoint x="510" y="200" as="sourcePoint" />
            <mxPoint x="370" y="245" as="targetPoint" />
            <Array as="points">
              <mxPoint x="400" y="390" />
              <mxPoint x="400" y="345" />
            </Array>
          </mxGeometry>
        </mxCell>
        <mxCell id="cr0H7SXg2rbTsi27HJZL-29" style="edgeStyle=orthogonalEdgeStyle;rounded=0;orthogonalLoop=1;jettySize=auto;html=1;entryX=1;entryY=0.5;entryDx=0;entryDy=0;dashed=1;dashPattern=8 8;" edge="1" parent="1" source="cr0H7SXg2rbTsi27HJZL-9" target="cr0H7SXg2rbTsi27HJZL-13">
          <mxGeometry relative="1" as="geometry">
            <mxPoint x="520" y="210" as="sourcePoint" />
            <mxPoint x="125" y="190" as="targetPoint" />
          </mxGeometry>
        </mxCell>
        <mxCell id="cr0H7SXg2rbTsi27HJZL-30" style="edgeStyle=orthogonalEdgeStyle;rounded=0;orthogonalLoop=1;jettySize=auto;html=1;dashed=1;dashPattern=8 8;entryX=1;entryY=0.5;entryDx=0;entryDy=0;" edge="1" parent="1" source="cr0H7SXg2rbTsi27HJZL-10" target="cr0H7SXg2rbTsi27HJZL-14">
          <mxGeometry relative="1" as="geometry">
            <mxPoint x="245" y="245" as="sourcePoint" />
            <mxPoint x="125" y="285" as="targetPoint" />
            <Array as="points" />
          </mxGeometry>
        </mxCell>
        <mxCell id="cr0H7SXg2rbTsi27HJZL-31" style="edgeStyle=orthogonalEdgeStyle;rounded=0;orthogonalLoop=1;jettySize=auto;html=1;dashed=1;dashPattern=8 8;exitX=0.5;exitY=0;exitDx=0;exitDy=0;exitPerimeter=0;" edge="1" parent="1" source="cr0H7SXg2rbTsi27HJZL-11" target="cr0H7SXg2rbTsi27HJZL-15">
          <mxGeometry relative="1" as="geometry">
            <mxPoint x="255" y="255" as="sourcePoint" />
            <mxPoint x="125" y="400" as="targetPoint" />
          </mxGeometry>
        </mxCell>
        <mxCell id="O_zsYAri1KJUL6ATD1bq-2" value="" style="dashed=0;outlineConnect=0;html=1;align=center;labelPosition=center;verticalLabelPosition=bottom;verticalAlign=top;shape=mxgraph.weblogos.twitter;fillColor=#1DA1F2;strokeColor=none" vertex="1" parent="1">
          <mxGeometry x="740" y="270" width="50" height="40" as="geometry" />
        </mxCell>
        <mxCell id="O_zsYAri1KJUL6ATD1bq-3" value="" style="dashed=0;outlineConnect=0;html=1;align=center;labelPosition=center;verticalLabelPosition=bottom;verticalAlign=top;shape=mxgraph.weblogos.twitter;fillColor=#1DA1F2;strokeColor=none" vertex="1" parent="1">
          <mxGeometry x="740" y="310" width="50" height="40" as="geometry" />
        </mxCell>
        <mxCell id="O_zsYAri1KJUL6ATD1bq-4" value="" style="dashed=0;outlineConnect=0;html=1;align=center;labelPosition=center;verticalLabelPosition=bottom;verticalAlign=top;shape=mxgraph.weblogos.twitter;fillColor=#1DA1F2;strokeColor=none" vertex="1" parent="1">
          <mxGeometry x="790" y="280" width="50" height="40" as="geometry" />
        </mxCell>
      </root>
    </mxGraphModel>
  </diagram>
  <diagram id="NVRuh7PDit0gSynRMAsu" name="detection">
    <mxGraphModel dx="794" dy="518" grid="1" gridSize="10" guides="1" tooltips="1" connect="1" arrows="1" fold="1" page="1" pageScale="1" pageWidth="850" pageHeight="1100" math="0" shadow="0">
      <root>
        <mxCell id="0" />
        <mxCell id="1" parent="0" />
        <mxCell id="zZ6tcGj-fMntvVvNvGSI-27" style="edgeStyle=orthogonalEdgeStyle;rounded=0;orthogonalLoop=1;jettySize=auto;html=1;exitX=0;exitY=0.5;exitDx=0;exitDy=0;entryX=1;entryY=0.5;entryDx=0;entryDy=0;" edge="1" parent="1" source="zZ6tcGj-fMntvVvNvGSI-1" target="zZ6tcGj-fMntvVvNvGSI-10">
          <mxGeometry relative="1" as="geometry" />
        </mxCell>
        <mxCell id="zZ6tcGj-fMntvVvNvGSI-1" value="Detection Strategy" style="rounded=0;whiteSpace=wrap;html=1;" vertex="1" parent="1">
          <mxGeometry x="600" y="580" width="120" height="60" as="geometry" />
        </mxCell>
        <mxCell id="zZ6tcGj-fMntvVvNvGSI-10" value="Post Detection Pipeline" style="rounded=0;whiteSpace=wrap;html=1;" vertex="1" parent="1">
          <mxGeometry x="340" y="580" width="130" height="60" as="geometry" />
        </mxCell>
        <mxCell id="zZ6tcGj-fMntvVvNvGSI-14" style="edgeStyle=orthogonalEdgeStyle;rounded=0;orthogonalLoop=1;jettySize=auto;html=1;exitX=0;exitY=0.5;exitDx=0;exitDy=0;entryX=1;entryY=0.5;entryDx=0;entryDy=0;" edge="1" parent="1" source="zZ6tcGj-fMntvVvNvGSI-15">
          <mxGeometry relative="1" as="geometry">
            <mxPoint x="460" y="700" as="targetPoint" />
          </mxGeometry>
        </mxCell>
        <mxCell id="zZ6tcGj-fMntvVvNvGSI-15" value="Event Summerisation" style="rounded=0;whiteSpace=wrap;html=1;" vertex="1" parent="1">
          <mxGeometry x="480" y="680" width="90" height="40" as="geometry" />
        </mxCell>
        <mxCell id="zZ6tcGj-fMntvVvNvGSI-24" style="edgeStyle=orthogonalEdgeStyle;rounded=0;orthogonalLoop=1;jettySize=auto;html=1;exitX=0;exitY=0.5;exitDx=0;exitDy=0;entryX=1;entryY=0.5;entryDx=0;entryDy=0;" edge="1" parent="1" source="zZ6tcGj-fMntvVvNvGSI-22" target="zZ6tcGj-fMntvVvNvGSI-23">
          <mxGeometry relative="1" as="geometry" />
        </mxCell>
        <mxCell id="zZ6tcGj-fMntvVvNvGSI-22" value="Event Locating" style="rounded=0;whiteSpace=wrap;html=1;" vertex="1" parent="1">
          <mxGeometry x="370" y="680" width="90" height="40" as="geometry" />
        </mxCell>
        <mxCell id="zZ6tcGj-fMntvVvNvGSI-23" value="Notify Event Servie" style="rounded=0;whiteSpace=wrap;html=1;" vertex="1" parent="1">
          <mxGeometry x="260" y="680" width="90" height="40" as="geometry" />
        </mxCell>
        <mxCell id="zZ6tcGj-fMntvVvNvGSI-25" value="Consume Messages" style="text;html=1;align=center;verticalAlign=middle;resizable=0;points=[];autosize=1;strokeColor=none;fillColor=none;" vertex="1" parent="1">
          <mxGeometry x="745" y="590" width="130" height="30" as="geometry" />
        </mxCell>
        <mxCell id="zZ6tcGj-fMntvVvNvGSI-26" style="edgeStyle=orthogonalEdgeStyle;rounded=0;orthogonalLoop=1;jettySize=auto;html=1;" edge="1" parent="1" target="zZ6tcGj-fMntvVvNvGSI-1">
          <mxGeometry relative="1" as="geometry">
            <mxPoint x="880" y="610" as="sourcePoint" />
          </mxGeometry>
        </mxCell>
        <mxCell id="zZ6tcGj-fMntvVvNvGSI-28" value="Detected Events" style="text;html=1;align=center;verticalAlign=middle;resizable=0;points=[];autosize=1;strokeColor=none;fillColor=none;" vertex="1" parent="1">
          <mxGeometry x="490" y="590" width="110" height="30" as="geometry" />
        </mxCell>
      </root>
    </mxGraphModel>
  </diagram>
  <diagram id="TWGogYTQiuovMXQ-fvW_" name="scraper pattern">
    <mxGraphModel dx="794" dy="518" grid="1" gridSize="10" guides="1" tooltips="1" connect="1" arrows="1" fold="1" page="1" pageScale="1" pageWidth="850" pageHeight="1100" math="0" shadow="0">
      <root>
        <mxCell id="0" />
        <mxCell id="1" parent="0" />
        <mxCell id="5HbR6hkuhqemBVwpgFns-1" value="Processng Pipeline" style="swimlane;fontStyle=0;childLayout=stackLayout;horizontal=1;startSize=26;fillColor=none;horizontalStack=0;resizeParent=1;resizeParentMax=0;resizeLast=0;collapsible=1;marginBottom=0;whiteSpace=wrap;html=1;" parent="1" vertex="1">
          <mxGeometry x="320" y="245" width="180" height="94" as="geometry" />
        </mxCell>
        <mxCell id="5HbR6hkuhqemBVwpgFns-2" value="+ List Processing Steps&lt;span style=&quot;color: rgba(0, 0, 0, 0); font-family: monospace; font-size: 0px; text-wrap-mode: nowrap;&quot;&gt;%3CmxGraphModel%3E%3Croot%3E%3CmxCell%20id%3D%220%22%2F%3E%3CmxCell%20id%3D%221%22%20parent%3D%220%22%2F%3E%3CmxCell%20id%3D%222%22%20value%3D%22Processng%20Pipeline%22%20style%3D%22swimlane%3BfontStyle%3D0%3BchildLayout%3DstackLayout%3Bhorizontal%3D1%3BstartSize%3D26%3BfillColor%3Dnone%3BhorizontalStack%3D0%3BresizeParent%3D1%3BresizeParentMax%3D0%3BresizeLast%3D0%3Bcollapsible%3D1%3BmarginBottom%3D0%3BwhiteSpace%3Dwrap%3Bhtml%3D1%3B%22%20vertex%3D%221%22%20parent%3D%221%22%3E%3CmxGeometry%20x%3D%22340%22%20y%3D%22220%22%20width%3D%22310%22%20height%3D%2260%22%20as%3D%22geometry%22%2F%3E%3C%2FmxCell%3E%3CmxCell%20id%3D%223%22%20value%3D%22%2B%20Process(Event%20Context%2C%20NextStep)%20%3A%20Event%20Context%22%20style%3D%22text%3BstrokeColor%3Dnone%3BfillColor%3Dnone%3Balign%3Dleft%3BverticalAlign%3Dtop%3BspacingLeft%3D4%3BspacingRight%3D4%3Boverflow%3Dhidden%3Brotatable%3D0%3Bpoints%3D%5B%5B0%2C0.5%5D%2C%5B1%2C0.5%5D%5D%3BportConstraint%3Deastwest%3BwhiteSpace%3Dwrap%3Bhtml%3D1%3B%22%20vertex%3D%221%22%20parent%3D%222%22%3E%3CmxGeometry%20y%3D%2226%22%20width%3D%22310%22%20height%3D%2234%22%20as%3D%22geometry%22%2F%3E%3C%2FmxCell%3E%3C%2Froot%3E%3C%2FmxGraphModel%3E&lt;/span&gt;" style="text;strokeColor=none;fillColor=none;align=left;verticalAlign=top;spacingLeft=4;spacingRight=4;overflow=hidden;rotatable=0;points=[[0,0.5],[1,0.5]];portConstraint=eastwest;whiteSpace=wrap;html=1;" parent="5HbR6hkuhqemBVwpgFns-1" vertex="1">
          <mxGeometry y="26" width="180" height="34" as="geometry" />
        </mxCell>
        <mxCell id="5HbR6hkuhqemBVwpgFns-3" value="+ AddStep(Processing Step)" style="text;strokeColor=none;fillColor=none;align=left;verticalAlign=top;spacingLeft=4;spacingRight=4;overflow=hidden;rotatable=0;points=[[0,0.5],[1,0.5]];portConstraint=eastwest;whiteSpace=wrap;html=1;" parent="5HbR6hkuhqemBVwpgFns-1" vertex="1">
          <mxGeometry y="60" width="180" height="34" as="geometry" />
        </mxCell>
        <mxCell id="5HbR6hkuhqemBVwpgFns-4" style="edgeStyle=orthogonalEdgeStyle;rounded=0;orthogonalLoop=1;jettySize=auto;html=1;" parent="1" source="5HbR6hkuhqemBVwpgFns-5" target="5HbR6hkuhqemBVwpgFns-1" edge="1">
          <mxGeometry relative="1" as="geometry">
            <Array as="points">
              <mxPoint x="250" y="320" />
              <mxPoint x="250" y="292" />
            </Array>
          </mxGeometry>
        </mxCell>
        <mxCell id="5HbR6hkuhqemBVwpgFns-5" value="Agent" style="swimlane;fontStyle=0;childLayout=stackLayout;horizontal=1;startSize=26;fillColor=none;horizontalStack=0;resizeParent=1;resizeParentMax=0;resizeLast=0;collapsible=1;marginBottom=0;whiteSpace=wrap;html=1;" parent="1" vertex="1">
          <mxGeometry x="20" y="280" width="150" height="104" as="geometry">
            <mxRectangle x="120" y="210" width="100" height="30" as="alternateBounds" />
          </mxGeometry>
        </mxCell>
        <mxCell id="5HbR6hkuhqemBVwpgFns-6" value="+ Pre&lt;span style=&quot;color: rgba(0, 0, 0, 0); font-family: monospace; font-size: 0px; text-wrap-mode: nowrap;&quot;&gt;%3CmxGraphModel%3E%3Croot%3E%3CmxCell%20id%3D%220%22%2F%3E%3CmxCell%20id%3D%221%22%20parent%3D%220%22%2F%3E%3CmxCell%20id%3D%222%22%20value%3D%22Processng%20Pipeline%22%20style%3D%22swimlane%3BfontStyle%3D0%3BchildLayout%3DstackLayout%3Bhorizontal%3D1%3BstartSize%3D26%3BfillColor%3Dnone%3BhorizontalStack%3D0%3BresizeParent%3D1%3BresizeParentMax%3D0%3BresizeLast%3D0%3Bcollapsible%3D1%3BmarginBottom%3D0%3BwhiteSpace%3Dwrap%3Bhtml%3D1%3B%22%20vertex%3D%221%22%20parent%3D%221%22%3E%3CmxGeometry%20x%3D%22320%22%20y%3D%22245%22%20width%3D%22180%22%20height%3D%2294%22%20as%3D%22geometry%22%2F%3E%3C%2FmxCell%3E%3CmxCell%20id%3D%223%22%20value%3D%22%2B%20List%20Processing%20Steps%26lt%3Bspan%20style%3D%26quot%3Bcolor%3A%20rgba(0%2C%200%2C%200%2C%200)%3B%20font-family%3A%20monospace%3B%20font-size%3A%200px%3B%20text-wrap-mode%3A%20nowrap%3B%26quot%3B%26gt%3B%253CmxGraphModel%253E%253Croot%253E%253CmxCell%2520id%253D%25220%2522%252F%253E%253CmxCell%2520id%253D%25221%2522%2520parent%253D%25220%2522%252F%253E%253CmxCell%2520id%253D%25222%2522%2520value%253D%2522Processng%2520Pipeline%2522%2520style%253D%2522swimlane%253BfontStyle%253D0%253BchildLayout%253DstackLayout%253Bhorizontal%253D1%253BstartSize%253D26%253BfillColor%253Dnone%253BhorizontalStack%253D0%253BresizeParent%253D1%253BresizeParentMax%253D0%253BresizeLast%253D0%253Bcollapsible%253D1%253BmarginBottom%253D0%253BwhiteSpace%253Dwrap%253Bhtml%253D1%253B%2522%2520vertex%253D%25221%2522%2520parent%253D%25221%2522%253E%253CmxGeometry%2520x%253D%2522340%2522%2520y%253D%2522220%2522%2520width%253D%2522310%2522%2520height%253D%252260%2522%2520as%253D%2522geometry%2522%252F%253E%253C%252FmxCell%253E%253CmxCell%2520id%253D%25223%2522%2520value%253D%2522%252B%2520Process(Event%2520Context%252C%2520NextStep)%2520%253A%2520Event%2520Context%2522%2520style%253D%2522text%253BstrokeColor%253Dnone%253BfillColor%253Dnone%253Balign%253Dleft%253BverticalAlign%253Dtop%253BspacingLeft%253D4%253BspacingRight%253D4%253Boverflow%253Dhidden%253Brotatable%253D0%253Bpoints%253D%255B%255B0%252C0.5%255D%252C%255B1%252C0.5%255D%255D%253BportConstraint%253Deastwest%253BwhiteSpace%253Dwrap%253Bhtml%253D1%253B%2522%2520vertex%253D%25221%2522%2520parent%253D%25222%2522%253E%253CmxGeometry%2520y%253D%252226%2522%2520width%253D%2522310%2522%2520height%253D%252234%2522%2520as%253D%2522geometry%2522%252F%253E%253C%252FmxCell%253E%253C%252Froot%253E%253C%252FmxGraphModel%253E%26lt%3B%2Fspan%26gt%3B%22%20style%3D%22text%3BstrokeColor%3Dnone%3BfillColor%3Dnone%3Balign%3Dleft%3BverticalAlign%3Dtop%3BspacingLeft%3D4%3BspacingRight%3D4%3Boverflow%3Dhidden%3Brotatable%3D0%3Bpoints%3D%5B%5B0%2C0.5%5D%2C%5B1%2C0.5%5D%5D%3BportConstraint%3Deastwest%3BwhiteSpace%3Dwrap%3Bhtml%3D1%3B%22%20vertex%3D%221%22%20parent%3D%222%22%3E%3CmxGeometry%20y%3D%2226%22%20width%3D%22180%22%20height%3D%2234%22%20as%3D%22geometry%22%2F%3E%3C%2FmxCell%3E%3CmxCell%20id%3D%224%22%20value%3D%22%2B%20AddStep(Processing%20Step)%22%20style%3D%22text%3BstrokeColor%3Dnone%3BfillColor%3Dnone%3Balign%3Dleft%3BverticalAlign%3Dtop%3BspacingLeft%3D4%3BspacingRight%3D4%3Boverflow%3Dhidden%3Brotatable%3D0%3Bpoints%3D%5B%5B0%2C0.5%5D%2C%5B1%2C0.5%5D%5D%3BportConstraint%3Deastwest%3BwhiteSpace%3Dwrap%3Bhtml%3D1%3B%22%20vertex%3D%221%22%20parent%3D%222%22%3E%3CmxGeometry%20y%3D%2260%22%20width%3D%22180%22%20height%3D%2234%22%20as%3D%22geometry%22%2F%3E%3C%2FmxCell%3E%3CmxCell%20id%3D%225%22%20style%3D%22edgeStyle%3DorthogonalEdgeStyle%3Brounded%3D0%3BorthogonalLoop%3D1%3BjettySize%3Dauto%3Bhtml%3D1%3B%22%20edge%3D%221%22%20source%3D%226%22%20target%3D%222%22%20parent%3D%221%22%3E%3CmxGeometry%20relative%3D%221%22%20as%3D%22geometry%22%3E%3CArray%20as%3D%22points%22%3E%3CmxPoint%20x%3D%22250%22%20y%3D%22320%22%2F%3E%3CmxPoint%20x%3D%22250%22%20y%3D%22292%22%2F%3E%3C%2FArray%3E%3C%2FmxGeometry%3E%3C%2FmxCell%3E%3CmxCell%20id%3D%226%22%20value%3D%22Agent%22%20style%3D%22swimlane%3BfontStyle%3D0%3BchildLayout%3DstackLayout%3Bhorizontal%3D1%3BstartSize%3D26%3BfillColor%3Dnone%3BhorizontalStack%3D0%3BresizeParent%3D1%3BresizeParentMax%3D0%3BresizeLast%3D0%3Bcollapsible%3D1%3BmarginBottom%3D0%3BwhiteSpace%3Dwrap%3Bhtml%3D1%3B%22%20vertex%3D%221%22%20parent%3D%221%22%3E%3CmxGeometry%20x%3D%2220%22%20y%3D%22280%22%20width%3D%22150%22%20height%3D%22104%22%20as%3D%22geometry%22%3E%3CmxRectangle%20x%3D%22120%22%20y%3D%22210%22%20width%3D%22100%22%20height%3D%2230%22%20as%3D%22alternateBounds%22%2F%3E%3C%2FmxGeometry%3E%3C%2FmxCell%3E%3CmxCell%20id%3D%227%22%20value%3D%22%2B%20Post%20Detection%20Pipeline%22%20style%3D%22text%3BstrokeColor%3Dnone%3BfillColor%3Dnone%3Balign%3Dleft%3BverticalAlign%3Dtop%3BspacingLeft%3D4%3BspacingRight%3D4%3Boverflow%3Dhidden%3Brotatable%3D0%3Bpoints%3D%5B%5B0%2C0.5%5D%2C%5B1%2C0.5%5D%5D%3BportConstraint%3Deastwest%3BwhiteSpace%3Dwrap%3Bhtml%3D1%3B%22%20vertex%3D%221%22%20parent%3D%226%22%3E%3CmxGeometry%20y%3D%2226%22%20width%3D%22150%22%20height%3D%2226%22%20as%3D%22geometry%22%2F%3E%3C%2FmxCell%3E%3CmxCell%20id%3D%228%22%20value%3D%22%2B%20Detection%20Strategy%22%20style%3D%22text%3BstrokeColor%3Dnone%3BfillColor%3Dnone%3Balign%3Dleft%3BverticalAlign%3Dtop%3BspacingLeft%3D4%3BspacingRight%3D4%3Boverflow%3Dhidden%3Brotatable%3D0%3Bpoints%3D%5B%5B0%2C0.5%5D%2C%5B1%2C0.5%5D%5D%3BportConstraint%3Deastwest%3BwhiteSpace%3Dwrap%3Bhtml%3D1%3B%22%20vertex%3D%221%22%20parent%3D%226%22%3E%3CmxGeometry%20y%3D%2252%22%20width%3D%22150%22%20height%3D%2226%22%20as%3D%22geometry%22%2F%3E%3C%2FmxCell%3E%3CmxCell%20id%3D%229%22%20value%3D%22%2B%20Messages%20Service%22%20style%3D%22text%3BstrokeColor%3Dnone%3BfillColor%3Dnone%3Balign%3Dleft%3BverticalAlign%3Dtop%3BspacingLeft%3D4%3BspacingRight%3D4%3Boverflow%3Dhidden%3Brotatable%3D0%3Bpoints%3D%5B%5B0%2C0.5%5D%2C%5B1%2C0.5%5D%5D%3BportConstraint%3Deastwest%3BwhiteSpace%3Dwrap%3Bhtml%3D1%3B%22%20vertex%3D%221%22%20parent%3D%226%22%3E%3CmxGeometry%20y%3D%2278%22%20width%3D%22150%22%20height%3D%2226%22%20as%3D%22geometry%22%2F%3E%3C%2FmxCell%3E%3CmxCell%20id%3D%2210%22%20value%3D%22Processng%20Step%22%20style%3D%22swimlane%3BfontStyle%3D0%3BchildLayout%3DstackLayout%3Bhorizontal%3D1%3BstartSize%3D26%3BfillColor%3Dnone%3BhorizontalStack%3D0%3BresizeParent%3D1%3BresizeParentMax%3D0%3BresizeLast%3D0%3Bcollapsible%3D1%3BmarginBottom%3D0%3BwhiteSpace%3Dwrap%3Bhtml%3D1%3B%22%20vertex%3D%221%22%20parent%3D%221%22%3E%3CmxGeometry%20x%3D%22610%22%20y%3D%22220%22%20width%3D%22310%22%20height%3D%2260%22%20as%3D%22geometry%22%2F%3E%3C%2FmxCell%3E%3CmxCell%20id%3D%2211%22%20value%3D%22%2B%20Process(Event%20Context%2C%20NextStep)%20%3A%20Event%20Context%22%20style%3D%22text%3BstrokeColor%3Dnone%3BfillColor%3Dnone%3Balign%3Dleft%3BverticalAlign%3Dtop%3BspacingLeft%3D4%3BspacingRight%3D4%3Boverflow%3Dhidden%3Brotatable%3D0%3Bpoints%3D%5B%5B0%2C0.5%5D%2C%5B1%2C0.5%5D%5D%3BportConstraint%3Deastwest%3BwhiteSpace%3Dwrap%3Bhtml%3D1%3B%22%20vertex%3D%221%22%20parent%3D%2210%22%3E%3CmxGeometry%20y%3D%2226%22%20width%3D%22310%22%20height%3D%2234%22%20as%3D%22geometry%22%2F%3E%3C%2FmxCell%3E%3CmxCell%20id%3D%2212%22%20style%3D%22edgeStyle%3DorthogonalEdgeStyle%3Brounded%3D0%3BorthogonalLoop%3D1%3BjettySize%3Dauto%3Bhtml%3D1%3B%22%20edge%3D%221%22%20source%3D%222%22%20target%3D%2210%22%20parent%3D%221%22%3E%3CmxGeometry%20relative%3D%221%22%20as%3D%22geometry%22%3E%3CArray%20as%3D%22points%22%3E%3CmxPoint%20x%3D%22555%22%20y%3D%22292%22%2F%3E%3CmxPoint%20x%3D%22555%22%20y%3D%22250%22%2F%3E%3C%2FArray%3E%3C%2FmxGeometry%3E%3C%2FmxCell%3E%3CmxCell%20id%3D%2213%22%20value%3D%22Detection%20Strategy%22%20style%3D%22swimlane%3BfontStyle%3D0%3BchildLayout%3DstackLayout%3Bhorizontal%3D1%3BstartSize%3D26%3BfillColor%3Dnone%3BhorizontalStack%3D0%3BresizeParent%3D1%3BresizeParentMax%3D0%3BresizeLast%3D0%3Bcollapsible%3D1%3BmarginBottom%3D0%3BwhiteSpace%3Dwrap%3Bhtml%3D1%3B%22%20vertex%3D%221%22%20parent%3D%221%22%3E%3CmxGeometry%20x%3D%22320%22%20y%3D%22400%22%20width%3D%22230%22%20height%3D%2260%22%20as%3D%22geometry%22%2F%3E%3C%2FmxCell%3E%3CmxCell%20id%3D%2214%22%20value%3D%22%2B%20DetectEvent(MessagesBatch)%3A%20Events%22%20style%3D%22text%3BstrokeColor%3Dnone%3BfillColor%3Dnone%3Balign%3Dleft%3BverticalAlign%3Dtop%3BspacingLeft%3D4%3BspacingRight%3D4%3Boverflow%3Dhidden%3Brotatable%3D0%3Bpoints%3D%5B%5B0%2C0.5%5D%2C%5B1%2C0.5%5D%5D%3BportConstraint%3Deastwest%3BwhiteSpace%3Dwrap%3Bhtml%3D1%3B%22%20vertex%3D%221%22%20parent%3D%2213%22%3E%3CmxGeometry%20y%3D%2226%22%20width%3D%22230%22%20height%3D%2234%22%20as%3D%22geometry%22%2F%3E%3C%2FmxCell%3E%3CmxCell%20id%3D%2215%22%20style%3D%22edgeStyle%3DorthogonalEdgeStyle%3Brounded%3D0%3BorthogonalLoop%3D1%3BjettySize%3Dauto%3Bhtml%3D1%3BentryX%3D0%3BentryY%3D0.25%3BentryDx%3D0%3BentryDy%3D0%3B%22%20edge%3D%221%22%20source%3D%226%22%20target%3D%2213%22%20parent%3D%221%22%3E%3CmxGeometry%20relative%3D%221%22%20as%3D%22geometry%22%3E%3CArray%20as%3D%22points%22%3E%3CmxPoint%20x%3D%22250%22%20y%3D%22360%22%2F%3E%3CmxPoint%20x%3D%22250%22%20y%3D%22415%22%2F%3E%3C%2FArray%3E%3C%2FmxGeometry%3E%3C%2FmxCell%3E%3CmxCell%20id%3D%2216%22%20value%3D%22Simple%20Detection%20Strategy%22%20style%3D%22swimlane%3BfontStyle%3D0%3BchildLayout%3DstackLayout%3Bhorizontal%3D1%3BstartSize%3D26%3BfillColor%3Dnone%3BhorizontalStack%3D0%3BresizeParent%3D1%3BresizeParentMax%3D0%3BresizeLast%3D0%3Bcollapsible%3D1%3BmarginBottom%3D0%3BwhiteSpace%3Dwrap%3Bhtml%3D1%3B%22%20vertex%3D%221%22%20parent%3D%221%22%3E%3CmxGeometry%20x%3D%22210%22%20y%3D%22520%22%20width%3D%22230%22%20height%3D%2260%22%20as%3D%22geometry%22%2F%3E%3C%2FmxCell%3E%3CmxCell%20id%3D%2217%22%20value%3D%22%2B%20DetectEvent(MessagesBatch)%3A%20Events%22%20style%3D%22text%3BstrokeColor%3Dnone%3BfillColor%3Dnone%3Balign%3Dleft%3BverticalAlign%3Dtop%3BspacingLeft%3D4%3BspacingRight%3D4%3Boverflow%3Dhidden%3Brotatable%3D0%3Bpoints%3D%5B%5B0%2C0.5%5D%2C%5B1%2C0.5%5D%5D%3BportConstraint%3Deastwest%3BwhiteSpace%3Dwrap%3Bhtml%3D1%3B%22%20vertex%3D%221%22%20parent%3D%2216%22%3E%3CmxGeometry%20y%3D%2226%22%20width%3D%22230%22%20height%3D%2234%22%20as%3D%22geometry%22%2F%3E%3C%2FmxCell%3E%3CmxCell%20id%3D%2218%22%20style%3D%22edgeStyle%3DorthogonalEdgeStyle%3Brounded%3D0%3BorthogonalLoop%3D1%3BjettySize%3Dauto%3Bhtml%3D1%3BentryX%3D0.432%3BentryY%3D1.029%3BentryDx%3D0%3BentryDy%3D0%3BentryPerimeter%3D0%3BendArrow%3Dblock%3BendFill%3D0%3Bdashed%3D1%3BdashPattern%3D8%208%3B%22%20edge%3D%221%22%20source%3D%2216%22%20target%3D%2214%22%20parent%3D%221%22%3E%3CmxGeometry%20relative%3D%221%22%20as%3D%22geometry%22%2F%3E%3C%2FmxCell%3E%3CmxCell%20id%3D%2219%22%20value%3D%22Summerisation%20Step%22%20style%3D%22swimlane%3BfontStyle%3D0%3BchildLayout%3DstackLayout%3Bhorizontal%3D1%3BstartSize%3D26%3BfillColor%3Dnone%3BhorizontalStack%3D0%3BresizeParent%3D1%3BresizeParentMax%3D0%3BresizeLast%3D0%3Bcollapsible%3D1%3BmarginBottom%3D0%3BwhiteSpace%3Dwrap%3Bhtml%3D1%3B%22%20vertex%3D%221%22%20parent%3D%221%22%3E%3CmxGeometry%20x%3D%22670%22%20y%3D%22360%22%20width%3D%22310%22%20height%3D%2260%22%20as%3D%22geometry%22%2F%3E%3C%2FmxCell%3E%3CmxCell%20id%3D%2220%22%20value%3D%22%2B%20Process(Event%20Context%2C%20NextStep)%20%3A%20Event%20Context%22%20style%3D%22text%3BstrokeColor%3Dnone%3BfillColor%3Dnone%3Balign%3Dleft%3BverticalAlign%3Dtop%3BspacingLeft%3D4%3BspacingRight%3D4%3Boverflow%3Dhidden%3Brotatable%3D0%3Bpoints%3D%5B%5B0%2C0.5%5D%2C%5B1%2C0.5%5D%5D%3BportConstraint%3Deastwest%3BwhiteSpace%3Dwrap%3Bhtml%3D1%3B%22%20vertex%3D%221%22%20parent%3D%2219%22%3E%3CmxGeometry%20y%3D%2226%22%20width%3D%22310%22%20height%3D%2234%22%20as%3D%22geometry%22%2F%3E%3C%2FmxCell%3E%3CmxCell%20id%3D%2221%22%20value%3D%22....%22%20style%3D%22text%3Bhtml%3D1%3Balign%3Dcenter%3BverticalAlign%3Dmiddle%3Bresizable%3D0%3Bpoints%3D%5B%5D%3Bautosize%3D1%3BstrokeColor%3Dnone%3BfillColor%3Dnone%3B%22%20vertex%3D%221%22%20parent%3D%221%22%3E%3CmxGeometry%20x%3D%22470%22%20y%3D%22538%22%20width%3D%2240%22%20height%3D%2230%22%20as%3D%22geometry%22%2F%3E%3C%2FmxCell%3E%3CmxCell%20id%3D%2222%22%20style%3D%22edgeStyle%3DorthogonalEdgeStyle%3Brounded%3D0%3BorthogonalLoop%3D1%3BjettySize%3Dauto%3Bhtml%3D1%3BentryX%3D0.4%3BentryY%3D0.971%3BentryDx%3D0%3BentryDy%3D0%3BentryPerimeter%3D0%3Bdashed%3D1%3BdashPattern%3D8%208%3BendArrow%3Dblock%3BendFill%3D0%3B%22%20edge%3D%221%22%20source%3D%2219%22%20target%3D%2211%22%20parent%3D%221%22%3E%3CmxGeometry%20relative%3D%221%22%20as%3D%22geometry%22%2F%3E%3C%2FmxCell%3E%3CmxCell%20id%3D%2223%22%20value%3D%22Locating%20Step%22%20style%3D%22swimlane%3BfontStyle%3D0%3BchildLayout%3DstackLayout%3Bhorizontal%3D1%3BstartSize%3D26%3BfillColor%3Dnone%3BhorizontalStack%3D0%3BresizeParent%3D1%3BresizeParentMax%3D0%3BresizeLast%3D0%3Bcollapsible%3D1%3BmarginBottom%3D0%3BwhiteSpace%3Dwrap%3Bhtml%3D1%3B%22%20vertex%3D%221%22%20parent%3D%221%22%3E%3CmxGeometry%20x%3D%22670%22%20y%3D%22450%22%20width%3D%22310%22%20height%3D%2260%22%20as%3D%22geometry%22%2F%3E%3C%2FmxCell%3E%3CmxCell%20id%3D%2224%22%20value%3D%22%2B%20Process(Event%20Context%2C%20NextStep)%20%3A%20Event%20Context%22%20style%3D%22text%3BstrokeColor%3Dnone%3BfillColor%3Dnone%3Balign%3Dleft%3BverticalAlign%3Dtop%3BspacingLeft%3D4%3BspacingRight%3D4%3Boverflow%3Dhidden%3Brotatable%3D0%3Bpoints%3D%5B%5B0%2C0.5%5D%2C%5B1%2C0.5%5D%5D%3BportConstraint%3Deastwest%3BwhiteSpace%3Dwrap%3Bhtml%3D1%3B%22%20vertex%3D%221%22%20parent%3D%2223%22%3E%3CmxGeometry%20y%3D%2226%22%20width%3D%22310%22%20height%3D%2234%22%20as%3D%22geometry%22%2F%3E%3C%2FmxCell%3E%3C%2Froot%3E%3C%2FmxGraphModel%3E&lt;/span&gt;processing Pipeline" style="text;strokeColor=none;fillColor=none;align=left;verticalAlign=top;spacingLeft=4;spacingRight=4;overflow=hidden;rotatable=0;points=[[0,0.5],[1,0.5]];portConstraint=eastwest;whiteSpace=wrap;html=1;" parent="5HbR6hkuhqemBVwpgFns-5" vertex="1">
          <mxGeometry y="26" width="150" height="26" as="geometry" />
        </mxCell>
        <mxCell id="5HbR6hkuhqemBVwpgFns-7" value="+ Scraping Registry" style="text;strokeColor=none;fillColor=none;align=left;verticalAlign=top;spacingLeft=4;spacingRight=4;overflow=hidden;rotatable=0;points=[[0,0.5],[1,0.5]];portConstraint=eastwest;whiteSpace=wrap;html=1;" parent="5HbR6hkuhqemBVwpgFns-5" vertex="1">
          <mxGeometry y="52" width="150" height="26" as="geometry" />
        </mxCell>
        <mxCell id="5HbR6hkuhqemBVwpgFns-8" value="+ Publishing Pipeline" style="text;strokeColor=none;fillColor=none;align=left;verticalAlign=top;spacingLeft=4;spacingRight=4;overflow=hidden;rotatable=0;points=[[0,0.5],[1,0.5]];portConstraint=eastwest;whiteSpace=wrap;html=1;" parent="5HbR6hkuhqemBVwpgFns-5" vertex="1">
          <mxGeometry y="78" width="150" height="26" as="geometry" />
        </mxCell>
        <mxCell id="5HbR6hkuhqemBVwpgFns-9" value="Filtering Stage" style="swimlane;fontStyle=0;childLayout=stackLayout;horizontal=1;startSize=26;fillColor=none;horizontalStack=0;resizeParent=1;resizeParentMax=0;resizeLast=0;collapsible=1;marginBottom=0;whiteSpace=wrap;html=1;" parent="1" vertex="1">
          <mxGeometry x="610" y="220" width="330" height="60" as="geometry" />
        </mxCell>
        <mxCell id="5HbR6hkuhqemBVwpgFns-10" value="+ Process(Scraping Context, NextStep) : Scraping Context" style="text;strokeColor=none;fillColor=none;align=left;verticalAlign=top;spacingLeft=4;spacingRight=4;overflow=hidden;rotatable=0;points=[[0,0.5],[1,0.5]];portConstraint=eastwest;whiteSpace=wrap;html=1;" parent="5HbR6hkuhqemBVwpgFns-9" vertex="1">
          <mxGeometry y="26" width="330" height="34" as="geometry" />
        </mxCell>
        <mxCell id="5HbR6hkuhqemBVwpgFns-11" style="edgeStyle=orthogonalEdgeStyle;rounded=0;orthogonalLoop=1;jettySize=auto;html=1;" parent="1" source="5HbR6hkuhqemBVwpgFns-1" target="5HbR6hkuhqemBVwpgFns-9" edge="1">
          <mxGeometry relative="1" as="geometry">
            <Array as="points">
              <mxPoint x="555" y="292" />
              <mxPoint x="555" y="250" />
            </Array>
          </mxGeometry>
        </mxCell>
        <mxCell id="5HbR6hkuhqemBVwpgFns-12" value="Scraping Approach" style="swimlane;fontStyle=0;childLayout=stackLayout;horizontal=1;startSize=26;fillColor=none;horizontalStack=0;resizeParent=1;resizeParentMax=0;resizeLast=0;collapsible=1;marginBottom=0;whiteSpace=wrap;html=1;" parent="1" vertex="1">
          <mxGeometry x="320" y="400" width="230" height="60" as="geometry" />
        </mxCell>
        <mxCell id="5HbR6hkuhqemBVwpgFns-13" value="+ ScrapeData(Task): MessageBatch" style="text;strokeColor=none;fillColor=none;align=left;verticalAlign=top;spacingLeft=4;spacingRight=4;overflow=hidden;rotatable=0;points=[[0,0.5],[1,0.5]];portConstraint=eastwest;whiteSpace=wrap;html=1;" parent="5HbR6hkuhqemBVwpgFns-12" vertex="1">
          <mxGeometry y="26" width="230" height="34" as="geometry" />
        </mxCell>
        <mxCell id="5HbR6hkuhqemBVwpgFns-14" style="edgeStyle=orthogonalEdgeStyle;rounded=0;orthogonalLoop=1;jettySize=auto;html=1;entryX=0;entryY=0.25;entryDx=0;entryDy=0;" parent="1" source="5HbR6hkuhqemBVwpgFns-5" target="5HbR6hkuhqemBVwpgFns-12" edge="1">
          <mxGeometry relative="1" as="geometry">
            <Array as="points">
              <mxPoint x="250" y="360" />
              <mxPoint x="250" y="415" />
            </Array>
          </mxGeometry>
        </mxCell>
        <mxCell id="5HbR6hkuhqemBVwpgFns-15" value="Twitter Scraper" style="swimlane;fontStyle=0;childLayout=stackLayout;horizontal=1;startSize=26;fillColor=none;horizontalStack=0;resizeParent=1;resizeParentMax=0;resizeLast=0;collapsible=1;marginBottom=0;whiteSpace=wrap;html=1;" parent="1" vertex="1">
          <mxGeometry x="210" y="520" width="230" height="60" as="geometry" />
        </mxCell>
        <mxCell id="5HbR6hkuhqemBVwpgFns-16" value="+ ScrapeData(Task): MessageBatch" style="text;strokeColor=none;fillColor=none;align=left;verticalAlign=top;spacingLeft=4;spacingRight=4;overflow=hidden;rotatable=0;points=[[0,0.5],[1,0.5]];portConstraint=eastwest;whiteSpace=wrap;html=1;" parent="5HbR6hkuhqemBVwpgFns-15" vertex="1">
          <mxGeometry y="26" width="230" height="34" as="geometry" />
        </mxCell>
        <mxCell id="5HbR6hkuhqemBVwpgFns-17" style="edgeStyle=orthogonalEdgeStyle;rounded=0;orthogonalLoop=1;jettySize=auto;html=1;entryX=0.432;entryY=1.029;entryDx=0;entryDy=0;entryPerimeter=0;endArrow=block;endFill=0;dashed=1;dashPattern=8 8;" parent="1" source="5HbR6hkuhqemBVwpgFns-15" target="5HbR6hkuhqemBVwpgFns-13" edge="1">
          <mxGeometry relative="1" as="geometry" />
        </mxCell>
        <mxCell id="5HbR6hkuhqemBVwpgFns-18" value="Hate Speach Stage" style="swimlane;fontStyle=0;childLayout=stackLayout;horizontal=1;startSize=26;fillColor=none;horizontalStack=0;resizeParent=1;resizeParentMax=0;resizeLast=0;collapsible=1;marginBottom=0;whiteSpace=wrap;html=1;" parent="1" vertex="1">
          <mxGeometry x="670" y="360" width="330" height="60" as="geometry" />
        </mxCell>
        <mxCell id="5HbR6hkuhqemBVwpgFns-19" value="+ Process(Scraping Context, NextStep) : Scraping Context" style="text;strokeColor=none;fillColor=none;align=left;verticalAlign=top;spacingLeft=4;spacingRight=4;overflow=hidden;rotatable=0;points=[[0,0.5],[1,0.5]];portConstraint=eastwest;whiteSpace=wrap;html=1;" parent="5HbR6hkuhqemBVwpgFns-18" vertex="1">
          <mxGeometry y="26" width="330" height="34" as="geometry" />
        </mxCell>
        <mxCell id="5HbR6hkuhqemBVwpgFns-20" value="...." style="text;html=1;align=center;verticalAlign=middle;resizable=0;points=[];autosize=1;strokeColor=none;fillColor=none;" parent="1" vertex="1">
          <mxGeometry x="470" y="538" width="40" height="30" as="geometry" />
        </mxCell>
        <mxCell id="5HbR6hkuhqemBVwpgFns-21" style="edgeStyle=orthogonalEdgeStyle;rounded=0;orthogonalLoop=1;jettySize=auto;html=1;entryX=0.4;entryY=0.971;entryDx=0;entryDy=0;entryPerimeter=0;dashed=1;dashPattern=8 8;endArrow=block;endFill=0;" parent="1" source="5HbR6hkuhqemBVwpgFns-18" target="5HbR6hkuhqemBVwpgFns-10" edge="1">
          <mxGeometry relative="1" as="geometry" />
        </mxCell>
        <mxCell id="5HbR6hkuhqemBVwpgFns-22" value="Sentiment Analysis Stage" style="swimlane;fontStyle=0;childLayout=stackLayout;horizontal=1;startSize=26;fillColor=none;horizontalStack=0;resizeParent=1;resizeParentMax=0;resizeLast=0;collapsible=1;marginBottom=0;whiteSpace=wrap;html=1;" parent="1" vertex="1">
          <mxGeometry x="670" y="450" width="330" height="60" as="geometry" />
        </mxCell>
        <mxCell id="5HbR6hkuhqemBVwpgFns-23" value="+ Process(Scraping Context, NextStep) : Scraping Context" style="text;strokeColor=none;fillColor=none;align=left;verticalAlign=top;spacingLeft=4;spacingRight=4;overflow=hidden;rotatable=0;points=[[0,0.5],[1,0.5]];portConstraint=eastwest;whiteSpace=wrap;html=1;" parent="5HbR6hkuhqemBVwpgFns-22" vertex="1">
          <mxGeometry y="26" width="330" height="34" as="geometry" />
        </mxCell>
      </root>
    </mxGraphModel>
  </diagram>
  <diagram id="KVeazibn8jeUa_C1QCDh" name="scraping management">
    <mxGraphModel dx="794" dy="518" grid="1" gridSize="10" guides="1" tooltips="1" connect="1" arrows="1" fold="1" page="1" pageScale="1" pageWidth="850" pageHeight="1100" math="0" shadow="0">
      <root>
        <mxCell id="0" />
        <mxCell id="1" parent="0" />
        <mxCell id="cunPQAUh87d1gmlFvmSz-7" style="edgeStyle=orthogonalEdgeStyle;rounded=0;orthogonalLoop=1;jettySize=auto;html=1;dashed=1;dashPattern=8 8;endArrow=block;endFill=0;" parent="1" source="cunPQAUh87d1gmlFvmSz-3" target="cunPQAUh87d1gmlFvmSz-8" edge="1">
          <mxGeometry relative="1" as="geometry">
            <mxPoint x="550" y="240" as="targetPoint" />
          </mxGeometry>
        </mxCell>
        <mxCell id="cunPQAUh87d1gmlFvmSz-3" value="Tasks scheduler" style="rounded=0;whiteSpace=wrap;html=1;" parent="1" vertex="1">
          <mxGeometry x="660" y="210" width="120" height="60" as="geometry" />
        </mxCell>
        <mxCell id="cunPQAUh87d1gmlFvmSz-6" style="edgeStyle=orthogonalEdgeStyle;rounded=0;orthogonalLoop=1;jettySize=auto;html=1;exitX=0.5;exitY=1;exitDx=0;exitDy=0;entryX=0.5;entryY=0;entryDx=0;entryDy=0;dashed=1;dashPattern=8 8;" parent="1" source="cunPQAUh87d1gmlFvmSz-5" target="cunPQAUh87d1gmlFvmSz-3" edge="1">
          <mxGeometry relative="1" as="geometry" />
        </mxCell>
        <mxCell id="cunPQAUh87d1gmlFvmSz-5" value="Data Sources" style="shape=process;whiteSpace=wrap;html=1;backgroundOutline=1;" parent="1" vertex="1">
          <mxGeometry x="660" y="70" width="120" height="60" as="geometry" />
        </mxCell>
        <mxCell id="cunPQAUh87d1gmlFvmSz-12" style="edgeStyle=orthogonalEdgeStyle;rounded=0;orthogonalLoop=1;jettySize=auto;html=1;dashed=1;dashPattern=8 8;endArrow=block;endFill=0;" parent="1" source="cunPQAUh87d1gmlFvmSz-8" target="cunPQAUh87d1gmlFvmSz-15" edge="1">
          <mxGeometry relative="1" as="geometry">
            <mxPoint x="190" y="240" as="targetPoint" />
          </mxGeometry>
        </mxCell>
        <mxCell id="cunPQAUh87d1gmlFvmSz-16" style="edgeStyle=orthogonalEdgeStyle;rounded=0;orthogonalLoop=1;jettySize=auto;html=1;exitX=0.5;exitY=1;exitDx=0;exitDy=0;endArrow=block;endFill=0;dashed=1;dashPattern=8 8;" parent="1" source="cunPQAUh87d1gmlFvmSz-8" target="cunPQAUh87d1gmlFvmSz-19" edge="1">
          <mxGeometry relative="1" as="geometry">
            <mxPoint x="490" y="360" as="targetPoint" />
            <Array as="points">
              <mxPoint x="400" y="398" />
            </Array>
          </mxGeometry>
        </mxCell>
        <mxCell id="cunPQAUh87d1gmlFvmSz-8" value="Scraper" style="rounded=0;whiteSpace=wrap;html=1;" parent="1" vertex="1">
          <mxGeometry x="340" y="210" width="120" height="60" as="geometry" />
        </mxCell>
        <mxCell id="cunPQAUh87d1gmlFvmSz-9" value="Tasks" style="text;html=1;align=center;verticalAlign=middle;resizable=0;points=[];autosize=1;strokeColor=none;fillColor=none;" parent="1" vertex="1">
          <mxGeometry x="535" y="218" width="50" height="30" as="geometry" />
        </mxCell>
        <mxCell id="cunPQAUh87d1gmlFvmSz-13" value="Messages" style="text;html=1;align=center;verticalAlign=middle;resizable=0;points=[];autosize=1;strokeColor=none;fillColor=none;" parent="1" vertex="1">
          <mxGeometry x="230" y="218" width="80" height="30" as="geometry" />
        </mxCell>
        <mxCell id="cunPQAUh87d1gmlFvmSz-15" value="Detection Service" style="rounded=0;whiteSpace=wrap;html=1;" parent="1" vertex="1">
          <mxGeometry x="60" y="210" width="120" height="60" as="geometry" />
        </mxCell>
        <mxCell id="cunPQAUh87d1gmlFvmSz-17" value="Scraping Info" style="text;html=1;align=center;verticalAlign=middle;resizable=0;points=[];autosize=1;strokeColor=none;fillColor=none;" parent="1" vertex="1">
          <mxGeometry x="440" y="368" width="90" height="30" as="geometry" />
        </mxCell>
        <mxCell id="cunPQAUh87d1gmlFvmSz-21" style="edgeStyle=orthogonalEdgeStyle;rounded=0;orthogonalLoop=1;jettySize=auto;html=1;dashed=1;dashPattern=8 8;" parent="1" source="cunPQAUh87d1gmlFvmSz-19" target="cunPQAUh87d1gmlFvmSz-5" edge="1">
          <mxGeometry relative="1" as="geometry">
            <Array as="points">
              <mxPoint x="900" y="398" />
              <mxPoint x="900" y="100" />
            </Array>
          </mxGeometry>
        </mxCell>
        <mxCell id="cunPQAUh87d1gmlFvmSz-19" value="Scrapers Monitor" style="rounded=0;whiteSpace=wrap;html=1;" parent="1" vertex="1">
          <mxGeometry x="660" y="368" width="120" height="60" as="geometry" />
        </mxCell>
        <mxCell id="cunPQAUh87d1gmlFvmSz-22" value="New Data Sources" style="text;html=1;align=center;verticalAlign=middle;resizable=0;points=[];autosize=1;strokeColor=none;fillColor=none;" parent="1" vertex="1">
          <mxGeometry x="790" y="78" width="120" height="30" as="geometry" />
        </mxCell>
      </root>
    </mxGraphModel>
  </diagram>
  <diagram id="30-HO4KyCcEss2xkz09S" name="Page-14">
    <mxGraphModel dx="794" dy="518" grid="1" gridSize="10" guides="1" tooltips="1" connect="1" arrows="1" fold="1" page="1" pageScale="1" pageWidth="850" pageHeight="1100" math="0" shadow="0">
      <root>
        <mxCell id="0" />
        <mxCell id="1" parent="0" />
        <mxCell id="5ShEdVl957JMj39tncmw-1" style="edgeStyle=orthogonalEdgeStyle;rounded=0;orthogonalLoop=1;jettySize=auto;html=1;dashed=1;dashPattern=8 8;endArrow=block;endFill=0;" parent="1" source="5ShEdVl957JMj39tncmw-2" target="5ShEdVl957JMj39tncmw-7" edge="1">
          <mxGeometry relative="1" as="geometry">
            <mxPoint x="560" y="240" as="targetPoint" />
          </mxGeometry>
        </mxCell>
        <mxCell id="5ShEdVl957JMj39tncmw-2" value="Scraping Manager" style="rounded=0;whiteSpace=wrap;html=1;fillColor=#dae8fc;strokeColor=#6c8ebf;" parent="1" vertex="1">
          <mxGeometry x="750" y="210" width="120" height="60" as="geometry" />
        </mxCell>
        <mxCell id="5ShEdVl957JMj39tncmw-3" style="edgeStyle=orthogonalEdgeStyle;rounded=0;orthogonalLoop=1;jettySize=auto;html=1;exitX=0.5;exitY=1;exitDx=0;exitDy=0;entryX=0.5;entryY=0;entryDx=0;entryDy=0;dashed=1;dashPattern=8 8;" parent="1" target="5ShEdVl957JMj39tncmw-2" edge="1">
          <mxGeometry relative="1" as="geometry">
            <mxPoint x="810" y="130" as="sourcePoint" />
          </mxGeometry>
        </mxCell>
        <mxCell id="5ShEdVl957JMj39tncmw-5" style="edgeStyle=orthogonalEdgeStyle;rounded=0;orthogonalLoop=1;jettySize=auto;html=1;dashed=1;dashPattern=8 8;endArrow=block;endFill=0;" parent="1" source="5ShEdVl957JMj39tncmw-7" target="5ShEdVl957JMj39tncmw-10" edge="1">
          <mxGeometry relative="1" as="geometry">
            <mxPoint x="190" y="240" as="targetPoint" />
          </mxGeometry>
        </mxCell>
        <mxCell id="5ShEdVl957JMj39tncmw-6" style="edgeStyle=orthogonalEdgeStyle;rounded=0;orthogonalLoop=1;jettySize=auto;html=1;endArrow=block;endFill=0;dashed=1;dashPattern=8 8;" parent="1" source="5ShEdVl957JMj39tncmw-7" target="5ShEdVl957JMj39tncmw-2" edge="1">
          <mxGeometry relative="1" as="geometry">
            <mxPoint x="670" y="398" as="targetPoint" />
            <Array as="points">
              <mxPoint x="1020" y="320" />
              <mxPoint x="810" y="320" />
            </Array>
          </mxGeometry>
        </mxCell>
        <mxCell id="5ShEdVl957JMj39tncmw-7" value="Scraper" style="rounded=0;whiteSpace=wrap;html=1;fillColor=#dae8fc;strokeColor=#6c8ebf;" parent="1" vertex="1">
          <mxGeometry x="960" y="210" width="120" height="60" as="geometry" />
        </mxCell>
        <mxCell id="5ShEdVl957JMj39tncmw-8" value="Tasks" style="text;html=1;align=center;verticalAlign=middle;resizable=0;points=[];autosize=1;strokeColor=none;fillColor=none;" parent="1" vertex="1">
          <mxGeometry x="880" y="218" width="50" height="30" as="geometry" />
        </mxCell>
        <mxCell id="5ShEdVl957JMj39tncmw-60" style="edgeStyle=orthogonalEdgeStyle;rounded=0;orthogonalLoop=1;jettySize=auto;html=1;exitX=1;exitY=0.5;exitDx=0;exitDy=0;endArrow=block;endFill=0;dashed=1;dashPattern=8 8;" parent="1" source="5ShEdVl957JMj39tncmw-10" target="5ShEdVl957JMj39tncmw-57" edge="1">
          <mxGeometry relative="1" as="geometry" />
        </mxCell>
        <mxCell id="5ShEdVl957JMj39tncmw-10" value="Filtering Module" style="rounded=0;whiteSpace=wrap;html=1;fillColor=#dae8fc;strokeColor=#6c8ebf;" parent="1" vertex="1">
          <mxGeometry x="1200" y="210" width="120" height="60" as="geometry" />
        </mxCell>
        <mxCell id="5ShEdVl957JMj39tncmw-11" value="Top K Named Entity" style="text;html=1;align=center;verticalAlign=middle;resizable=0;points=[];autosize=1;strokeColor=none;fillColor=none;" parent="1" vertex="1">
          <mxGeometry x="850" y="300" width="130" height="30" as="geometry" />
        </mxCell>
        <mxCell id="5ShEdVl957JMj39tncmw-12" style="edgeStyle=orthogonalEdgeStyle;rounded=0;orthogonalLoop=1;jettySize=auto;html=1;dashed=1;dashPattern=8 8;exitX=0;exitY=0.5;exitDx=0;exitDy=0;endArrow=block;endFill=0;" parent="1" source="5ShEdVl957JMj39tncmw-2" edge="1">
          <mxGeometry relative="1" as="geometry">
            <Array as="points">
              <mxPoint x="700" y="240" />
              <mxPoint x="700" y="100" />
            </Array>
            <mxPoint x="870" y="398" as="sourcePoint" />
            <mxPoint x="760" y="100" as="targetPoint" />
          </mxGeometry>
        </mxCell>
        <mxCell id="5ShEdVl957JMj39tncmw-14" value="New Data Sources" style="text;html=1;align=center;verticalAlign=middle;resizable=0;points=[];autosize=1;strokeColor=none;fillColor=none;" parent="1" vertex="1">
          <mxGeometry x="630" y="70" width="120" height="30" as="geometry" />
        </mxCell>
        <mxCell id="5ShEdVl957JMj39tncmw-15" value="Data Sources" style="ellipse;shape=cloud;whiteSpace=wrap;html=1;fillColor=#d5e8d4;strokeColor=#82b366;" parent="1" vertex="1">
          <mxGeometry x="750" y="60" width="120" height="80" as="geometry" />
        </mxCell>
        <mxCell id="5ShEdVl957JMj39tncmw-16" value="Key Words" style="text;html=1;align=center;verticalAlign=middle;resizable=0;points=[];autosize=1;strokeColor=none;fillColor=none;" parent="1" vertex="1">
          <mxGeometry x="810" y="155" width="80" height="30" as="geometry" />
        </mxCell>
        <mxCell id="5ShEdVl957JMj39tncmw-18" value="Messages Stream" style="text;html=1;align=center;verticalAlign=middle;resizable=0;points=[];autosize=1;strokeColor=none;fillColor=none;" parent="1" vertex="1">
          <mxGeometry x="1080" y="218" width="120" height="30" as="geometry" />
        </mxCell>
        <mxCell id="5ShEdVl957JMj39tncmw-31" value="" style="group" parent="1" vertex="1" connectable="0">
          <mxGeometry x="1290" y="90" width="30" height="40" as="geometry" />
        </mxCell>
        <mxCell id="5ShEdVl957JMj39tncmw-26" value="" style="dashed=0;outlineConnect=0;html=1;align=center;labelPosition=center;verticalLabelPosition=bottom;verticalAlign=top;shape=mxgraph.weblogos.twitter;fillColor=#1DA1F2;strokeColor=none" parent="5ShEdVl957JMj39tncmw-31" vertex="1">
          <mxGeometry width="30" height="30" as="geometry" />
        </mxCell>
        <mxCell id="5ShEdVl957JMj39tncmw-30" value="" style="dashed=0;labelPosition=right;align=left;shape=mxgraph.gmdl.checkbox;strokeColor=none;fillColor=#009587;strokeWidth=2;aspect=fixed;sketch=0;html=1;" parent="5ShEdVl957JMj39tncmw-31" vertex="1">
          <mxGeometry x="14" y="24" width="16" height="16" as="geometry" />
        </mxCell>
        <mxCell id="5ShEdVl957JMj39tncmw-33" value="" style="group" parent="1" vertex="1" connectable="0">
          <mxGeometry x="1245" y="60" width="30" height="40" as="geometry" />
        </mxCell>
        <mxCell id="5ShEdVl957JMj39tncmw-34" value="" style="dashed=0;outlineConnect=0;html=1;align=center;labelPosition=center;verticalLabelPosition=bottom;verticalAlign=top;shape=mxgraph.weblogos.twitter;fillColor=#1DA1F2;strokeColor=none" parent="5ShEdVl957JMj39tncmw-33" vertex="1">
          <mxGeometry width="30" height="30" as="geometry" />
        </mxCell>
        <mxCell id="5ShEdVl957JMj39tncmw-35" value="" style="dashed=0;labelPosition=right;align=left;shape=mxgraph.gmdl.checkbox;strokeColor=none;fillColor=#009587;strokeWidth=2;aspect=fixed;sketch=0;html=1;" parent="5ShEdVl957JMj39tncmw-33" vertex="1">
          <mxGeometry x="14" y="24" width="16" height="16" as="geometry" />
        </mxCell>
        <mxCell id="5ShEdVl957JMj39tncmw-36" value="" style="group" parent="1" vertex="1" connectable="0">
          <mxGeometry x="1280" y="150" width="30" height="40" as="geometry" />
        </mxCell>
        <mxCell id="5ShEdVl957JMj39tncmw-37" value="" style="dashed=0;outlineConnect=0;html=1;align=center;labelPosition=center;verticalLabelPosition=bottom;verticalAlign=top;shape=mxgraph.weblogos.twitter;fillColor=#1DA1F2;strokeColor=none" parent="5ShEdVl957JMj39tncmw-36" vertex="1">
          <mxGeometry width="30" height="30" as="geometry" />
        </mxCell>
        <mxCell id="5ShEdVl957JMj39tncmw-38" value="" style="dashed=0;labelPosition=right;align=left;shape=mxgraph.gmdl.checkbox;strokeColor=none;fillColor=#009587;strokeWidth=2;aspect=fixed;sketch=0;html=1;" parent="5ShEdVl957JMj39tncmw-36" vertex="1">
          <mxGeometry x="14" y="24" width="16" height="16" as="geometry" />
        </mxCell>
        <mxCell id="5ShEdVl957JMj39tncmw-39" value="" style="group" parent="1" vertex="1" connectable="0">
          <mxGeometry x="1210" y="150" width="30" height="40" as="geometry" />
        </mxCell>
        <mxCell id="5ShEdVl957JMj39tncmw-40" value="" style="dashed=0;outlineConnect=0;html=1;align=center;labelPosition=center;verticalLabelPosition=bottom;verticalAlign=top;shape=mxgraph.weblogos.twitter;fillColor=#1DA1F2;strokeColor=none" parent="5ShEdVl957JMj39tncmw-39" vertex="1">
          <mxGeometry width="30" height="30" as="geometry" />
        </mxCell>
        <mxCell id="5ShEdVl957JMj39tncmw-50" value="" style="dashed=0;labelPosition=right;align=left;shape=mxgraph.gmdl.radiobutton;strokeColor=#FF2506;fillColor=#FF2506;strokeWidth=2;aspect=fixed;sketch=0;html=1;" parent="5ShEdVl957JMj39tncmw-39" vertex="1">
          <mxGeometry x="14" y="24" width="16" height="16" as="geometry" />
        </mxCell>
        <mxCell id="5ShEdVl957JMj39tncmw-51" value="" style="group" parent="1" vertex="1" connectable="0">
          <mxGeometry x="1200" y="90" width="30" height="40" as="geometry" />
        </mxCell>
        <mxCell id="5ShEdVl957JMj39tncmw-52" value="" style="dashed=0;outlineConnect=0;html=1;align=center;labelPosition=center;verticalLabelPosition=bottom;verticalAlign=top;shape=mxgraph.weblogos.twitter;fillColor=#1DA1F2;strokeColor=none" parent="5ShEdVl957JMj39tncmw-51" vertex="1">
          <mxGeometry width="30" height="30" as="geometry" />
        </mxCell>
        <mxCell id="5ShEdVl957JMj39tncmw-53" value="" style="dashed=0;labelPosition=right;align=left;shape=mxgraph.gmdl.radiobutton;strokeColor=#FF2506;fillColor=#FF2506;strokeWidth=2;aspect=fixed;sketch=0;html=1;" parent="5ShEdVl957JMj39tncmw-51" vertex="1">
          <mxGeometry x="14" y="24" width="16" height="16" as="geometry" />
        </mxCell>
        <mxCell id="5ShEdVl957JMj39tncmw-57" value="Detection Module" style="rounded=0;whiteSpace=wrap;html=1;fillColor=#dae8fc;strokeColor=#6c8ebf;" parent="1" vertex="1">
          <mxGeometry x="1450" y="210" width="120" height="60" as="geometry" />
        </mxCell>
        <mxCell id="5ShEdVl957JMj39tncmw-61" value="Filtered Stream" style="text;html=1;align=center;verticalAlign=middle;resizable=0;points=[];autosize=1;strokeColor=none;fillColor=none;" parent="1" vertex="1">
          <mxGeometry x="1320" y="218" width="110" height="30" as="geometry" />
        </mxCell>
        <mxCell id="5ShEdVl957JMj39tncmw-64" value="" style="shape=ellipse;labelPosition=right;align=left;strokeColor=none;fillColor=#009587;opacity=10;sketch=0;html=1;" parent="1" vertex="1">
          <mxGeometry x="1520" y="24" width="80" height="100" as="geometry" />
        </mxCell>
        <mxCell id="5ShEdVl957JMj39tncmw-65" value="" style="dashed=0;labelPosition=right;align=left;shape=mxgraph.gmdl.radiobutton;strokeColor=#009587;fillColor=#009587;strokeWidth=2;sketch=0;html=1;" parent="1" vertex="1">
          <mxGeometry x="1573" y="48" width="16" height="16" as="geometry" />
        </mxCell>
        <mxCell id="5ShEdVl957JMj39tncmw-66" value="" style="dashed=0;labelPosition=right;align=left;shape=mxgraph.gmdl.radiobutton;strokeColor=#009587;fillColor=#009587;strokeWidth=2;sketch=0;html=1;" parent="1" vertex="1">
          <mxGeometry x="1573" y="80" width="16" height="16" as="geometry" />
        </mxCell>
        <mxCell id="5ShEdVl957JMj39tncmw-67" value="" style="dashed=0;labelPosition=right;align=left;shape=mxgraph.gmdl.radiobutton;strokeColor=#009587;fillColor=#009587;strokeWidth=2;sketch=0;html=1;" parent="1" vertex="1">
          <mxGeometry x="1557" y="104" width="16" height="16" as="geometry" />
        </mxCell>
        <mxCell id="5ShEdVl957JMj39tncmw-68" value="" style="dashed=0;labelPosition=right;align=left;shape=mxgraph.gmdl.radiobutton;strokeColor=#009587;fillColor=#009587;strokeWidth=2;sketch=0;html=1;" parent="1" vertex="1">
          <mxGeometry x="1538" y="88" width="16" height="16" as="geometry" />
        </mxCell>
        <mxCell id="5ShEdVl957JMj39tncmw-69" value="" style="dashed=0;labelPosition=right;align=left;shape=mxgraph.gmdl.radiobutton;strokeColor=#009587;fillColor=#009587;strokeWidth=2;sketch=0;html=1;" parent="1" vertex="1">
          <mxGeometry x="1530" y="54" width="16" height="16" as="geometry" />
        </mxCell>
        <mxCell id="5ShEdVl957JMj39tncmw-70" value="" style="dashed=0;labelPosition=right;align=left;shape=mxgraph.gmdl.radiobutton;strokeColor=#009587;fillColor=#009587;strokeWidth=2;sketch=0;html=1;" parent="1" vertex="1">
          <mxGeometry x="1552" y="66" width="16" height="16" as="geometry" />
        </mxCell>
        <mxCell id="5ShEdVl957JMj39tncmw-71" value="" style="dashed=0;labelPosition=right;align=left;shape=mxgraph.gmdl.radiobutton;strokeColor=#009587;fillColor=#009587;strokeWidth=2;sketch=0;html=1;" parent="1" vertex="1">
          <mxGeometry x="1552" y="32" width="16" height="16" as="geometry" />
        </mxCell>
        <mxCell id="5ShEdVl957JMj39tncmw-72" value="" style="dashed=0;labelPosition=right;align=left;shape=mxgraph.gmdl.radiobutton;strokeColor=#9E9E9E;fillColor=#272727;strokeWidth=2;sketch=0;html=1;" parent="1" vertex="1">
          <mxGeometry x="1504" y="114" width="16" height="16" as="geometry" />
        </mxCell>
        <mxCell id="5ShEdVl957JMj39tncmw-73" value="" style="shape=ellipse;labelPosition=right;align=left;strokeColor=none;fillColor=#009587;opacity=10;sketch=0;html=1;" parent="1" vertex="1">
          <mxGeometry x="1410" y="24" width="80" height="96" as="geometry" />
        </mxCell>
        <mxCell id="5ShEdVl957JMj39tncmw-74" value="" style="dashed=0;labelPosition=right;align=left;shape=mxgraph.gmdl.radiobutton;strokeColor=#009587;fillColor=#009587;strokeWidth=2;sketch=0;html=1;" parent="1" vertex="1">
          <mxGeometry x="1436" y="34" width="16" height="16" as="geometry" />
        </mxCell>
        <mxCell id="5ShEdVl957JMj39tncmw-75" value="" style="dashed=0;labelPosition=right;align=left;shape=mxgraph.gmdl.radiobutton;strokeColor=#009587;fillColor=#009587;strokeWidth=2;sketch=0;html=1;" parent="1" vertex="1">
          <mxGeometry x="1458" y="44" width="16" height="16" as="geometry" />
        </mxCell>
        <mxCell id="5ShEdVl957JMj39tncmw-76" value="" style="dashed=0;labelPosition=right;align=left;shape=mxgraph.gmdl.radiobutton;strokeColor=#009587;fillColor=#009587;strokeWidth=2;sketch=0;html=1;" parent="1" vertex="1">
          <mxGeometry x="1450" y="88" width="16" height="16" as="geometry" />
        </mxCell>
        <mxCell id="5ShEdVl957JMj39tncmw-77" value="" style="dashed=0;labelPosition=right;align=left;shape=mxgraph.gmdl.radiobutton;strokeColor=#009587;fillColor=#009587;strokeWidth=2;sketch=0;html=1;" parent="1" vertex="1">
          <mxGeometry x="1428" y="88" width="16" height="16" as="geometry" />
        </mxCell>
        <mxCell id="5ShEdVl957JMj39tncmw-78" value="" style="dashed=0;labelPosition=right;align=left;shape=mxgraph.gmdl.radiobutton;strokeColor=#009587;fillColor=#009587;strokeWidth=2;sketch=0;html=1;" parent="1" vertex="1">
          <mxGeometry x="1420" y="54" width="16" height="16" as="geometry" />
        </mxCell>
        <mxCell id="5ShEdVl957JMj39tncmw-79" value="" style="dashed=0;labelPosition=right;align=left;shape=mxgraph.gmdl.radiobutton;strokeColor=#009587;fillColor=#009587;strokeWidth=2;sketch=0;html=1;" parent="1" vertex="1">
          <mxGeometry x="1442" y="66" width="16" height="16" as="geometry" />
        </mxCell>
        <mxCell id="5ShEdVl957JMj39tncmw-81" value="" style="shape=ellipse;labelPosition=right;align=left;strokeColor=none;fillColor=#009587;opacity=10;sketch=0;html=1;" parent="1" vertex="1">
          <mxGeometry x="1442" y="132" width="70" height="70" as="geometry" />
        </mxCell>
        <mxCell id="5ShEdVl957JMj39tncmw-83" value="" style="dashed=0;labelPosition=right;align=left;shape=mxgraph.gmdl.radiobutton;strokeColor=#009587;fillColor=#009587;strokeWidth=2;sketch=0;html=1;" parent="1" vertex="1">
          <mxGeometry x="1485" y="158" width="16" height="16" as="geometry" />
        </mxCell>
        <mxCell id="5ShEdVl957JMj39tncmw-85" value="" style="dashed=0;labelPosition=right;align=left;shape=mxgraph.gmdl.radiobutton;strokeColor=#009587;fillColor=#009587;strokeWidth=2;sketch=0;html=1;" parent="1" vertex="1">
          <mxGeometry x="1450" y="166" width="16" height="16" as="geometry" />
        </mxCell>
        <mxCell id="5ShEdVl957JMj39tncmw-86" value="" style="dashed=0;labelPosition=right;align=left;shape=mxgraph.gmdl.radiobutton;strokeColor=#009587;fillColor=#009587;strokeWidth=2;sketch=0;html=1;" parent="1" vertex="1">
          <mxGeometry x="1469" y="180" width="16" height="16" as="geometry" />
        </mxCell>
        <mxCell id="5ShEdVl957JMj39tncmw-87" value="" style="dashed=0;labelPosition=right;align=left;shape=mxgraph.gmdl.radiobutton;strokeColor=#009587;fillColor=#009587;strokeWidth=2;sketch=0;html=1;" parent="1" vertex="1">
          <mxGeometry x="1464" y="144" width="16" height="16" as="geometry" />
        </mxCell>
        <mxCell id="5ShEdVl957JMj39tncmw-89" value="" style="shape=ellipse;labelPosition=right;align=left;strokeColor=none;fillColor=#009587;opacity=10;sketch=0;html=1;" parent="1" vertex="1">
          <mxGeometry x="1525" y="132" width="70" height="70" as="geometry" />
        </mxCell>
        <mxCell id="5ShEdVl957JMj39tncmw-90" value="" style="dashed=0;labelPosition=right;align=left;shape=mxgraph.gmdl.radiobutton;strokeColor=#009587;fillColor=#009587;strokeWidth=2;sketch=0;html=1;" parent="1" vertex="1">
          <mxGeometry x="1568" y="158" width="16" height="16" as="geometry" />
        </mxCell>
        <mxCell id="5ShEdVl957JMj39tncmw-91" value="" style="dashed=0;labelPosition=right;align=left;shape=mxgraph.gmdl.radiobutton;strokeColor=#009587;fillColor=#009587;strokeWidth=2;sketch=0;html=1;" parent="1" vertex="1">
          <mxGeometry x="1533" y="166" width="16" height="16" as="geometry" />
        </mxCell>
        <mxCell id="5ShEdVl957JMj39tncmw-92" value="" style="dashed=0;labelPosition=right;align=left;shape=mxgraph.gmdl.radiobutton;strokeColor=#009587;fillColor=#009587;strokeWidth=2;sketch=0;html=1;" parent="1" vertex="1">
          <mxGeometry x="1552" y="180" width="16" height="16" as="geometry" />
        </mxCell>
        <mxCell id="5ShEdVl957JMj39tncmw-93" value="" style="dashed=0;labelPosition=right;align=left;shape=mxgraph.gmdl.radiobutton;strokeColor=#009587;fillColor=#009587;strokeWidth=2;sketch=0;html=1;" parent="1" vertex="1">
          <mxGeometry x="1547" y="144" width="16" height="16" as="geometry" />
        </mxCell>
        <mxCell id="5ShEdVl957JMj39tncmw-95" value="" style="dashed=0;labelPosition=right;align=left;shape=mxgraph.gmdl.radiobutton;strokeColor=#9E9E9E;fillColor=#272727;strokeWidth=2;sketch=0;html=1;" parent="1" vertex="1">
          <mxGeometry x="1496" y="24" width="16" height="16" as="geometry" />
        </mxCell>
        <mxCell id="64MHztg0PfeKgfU5btfK-1" style="edgeStyle=orthogonalEdgeStyle;rounded=0;orthogonalLoop=1;jettySize=auto;html=1;exitX=-0.024;exitY=0.9;exitDx=0;exitDy=0;endArrow=block;endFill=0;dashed=1;dashPattern=8 8;exitPerimeter=0;" edge="1" parent="1" source="64MHztg0PfeKgfU5btfK-3" target="64MHztg0PfeKgfU5btfK-2">
          <mxGeometry relative="1" as="geometry">
            <mxPoint x="610" y="576" as="sourcePoint" />
          </mxGeometry>
        </mxCell>
        <mxCell id="64MHztg0PfeKgfU5btfK-2" value="Summerization Module" style="rounded=0;whiteSpace=wrap;html=1;fillColor=#dae8fc;strokeColor=#6c8ebf;" vertex="1" parent="1">
          <mxGeometry x="1000" y="546" width="120" height="60" as="geometry" />
        </mxCell>
        <mxCell id="64MHztg0PfeKgfU5btfK-3" value="Detected Events" style="text;html=1;align=center;verticalAlign=middle;resizable=0;points=[];autosize=1;strokeColor=none;fillColor=none;" vertex="1" parent="1">
          <mxGeometry x="748" y="550" width="110" height="30" as="geometry" />
        </mxCell>
        <mxCell id="64MHztg0PfeKgfU5btfK-4" value="" style="shape=ellipse;labelPosition=right;align=left;strokeColor=none;fillColor=#009587;opacity=10;sketch=0;html=1;" vertex="1" parent="1">
          <mxGeometry x="810" y="360" width="80" height="100" as="geometry" />
        </mxCell>
        <mxCell id="64MHztg0PfeKgfU5btfK-5" value="" style="dashed=0;labelPosition=right;align=left;shape=mxgraph.gmdl.radiobutton;strokeColor=#009587;fillColor=#009587;strokeWidth=2;sketch=0;html=1;" vertex="1" parent="1">
          <mxGeometry x="863" y="384" width="16" height="16" as="geometry" />
        </mxCell>
        <mxCell id="64MHztg0PfeKgfU5btfK-6" value="" style="dashed=0;labelPosition=right;align=left;shape=mxgraph.gmdl.radiobutton;strokeColor=#009587;fillColor=#009587;strokeWidth=2;sketch=0;html=1;" vertex="1" parent="1">
          <mxGeometry x="863" y="416" width="16" height="16" as="geometry" />
        </mxCell>
        <mxCell id="64MHztg0PfeKgfU5btfK-7" value="" style="dashed=0;labelPosition=right;align=left;shape=mxgraph.gmdl.radiobutton;strokeColor=#009587;fillColor=#009587;strokeWidth=2;sketch=0;html=1;" vertex="1" parent="1">
          <mxGeometry x="847" y="440" width="16" height="16" as="geometry" />
        </mxCell>
        <mxCell id="64MHztg0PfeKgfU5btfK-8" value="" style="dashed=0;labelPosition=right;align=left;shape=mxgraph.gmdl.radiobutton;strokeColor=#009587;fillColor=#009587;strokeWidth=2;sketch=0;html=1;" vertex="1" parent="1">
          <mxGeometry x="828" y="424" width="16" height="16" as="geometry" />
        </mxCell>
        <mxCell id="64MHztg0PfeKgfU5btfK-9" value="" style="dashed=0;labelPosition=right;align=left;shape=mxgraph.gmdl.radiobutton;strokeColor=#009587;fillColor=#009587;strokeWidth=2;sketch=0;html=1;" vertex="1" parent="1">
          <mxGeometry x="820" y="390" width="16" height="16" as="geometry" />
        </mxCell>
        <mxCell id="64MHztg0PfeKgfU5btfK-10" value="" style="dashed=0;labelPosition=right;align=left;shape=mxgraph.gmdl.radiobutton;strokeColor=#009587;fillColor=#009587;strokeWidth=2;sketch=0;html=1;" vertex="1" parent="1">
          <mxGeometry x="842" y="402" width="16" height="16" as="geometry" />
        </mxCell>
        <mxCell id="64MHztg0PfeKgfU5btfK-11" value="" style="dashed=0;labelPosition=right;align=left;shape=mxgraph.gmdl.radiobutton;strokeColor=#009587;fillColor=#009587;strokeWidth=2;sketch=0;html=1;" vertex="1" parent="1">
          <mxGeometry x="842" y="368" width="16" height="16" as="geometry" />
        </mxCell>
        <mxCell id="64MHztg0PfeKgfU5btfK-12" value="" style="shape=ellipse;labelPosition=right;align=left;strokeColor=none;fillColor=#009587;opacity=10;sketch=0;html=1;" vertex="1" parent="1">
          <mxGeometry x="700" y="360" width="80" height="96" as="geometry" />
        </mxCell>
        <mxCell id="64MHztg0PfeKgfU5btfK-13" value="" style="dashed=0;labelPosition=right;align=left;shape=mxgraph.gmdl.radiobutton;strokeColor=#009587;fillColor=#009587;strokeWidth=2;sketch=0;html=1;" vertex="1" parent="1">
          <mxGeometry x="726" y="370" width="16" height="16" as="geometry" />
        </mxCell>
        <mxCell id="64MHztg0PfeKgfU5btfK-14" value="" style="dashed=0;labelPosition=right;align=left;shape=mxgraph.gmdl.radiobutton;strokeColor=#009587;fillColor=#009587;strokeWidth=2;sketch=0;html=1;" vertex="1" parent="1">
          <mxGeometry x="748" y="380" width="16" height="16" as="geometry" />
        </mxCell>
        <mxCell id="64MHztg0PfeKgfU5btfK-15" value="" style="dashed=0;labelPosition=right;align=left;shape=mxgraph.gmdl.radiobutton;strokeColor=#009587;fillColor=#009587;strokeWidth=2;sketch=0;html=1;" vertex="1" parent="1">
          <mxGeometry x="740" y="424" width="16" height="16" as="geometry" />
        </mxCell>
        <mxCell id="64MHztg0PfeKgfU5btfK-16" value="" style="dashed=0;labelPosition=right;align=left;shape=mxgraph.gmdl.radiobutton;strokeColor=#009587;fillColor=#009587;strokeWidth=2;sketch=0;html=1;" vertex="1" parent="1">
          <mxGeometry x="718" y="424" width="16" height="16" as="geometry" />
        </mxCell>
        <mxCell id="64MHztg0PfeKgfU5btfK-17" value="" style="dashed=0;labelPosition=right;align=left;shape=mxgraph.gmdl.radiobutton;strokeColor=#009587;fillColor=#009587;strokeWidth=2;sketch=0;html=1;" vertex="1" parent="1">
          <mxGeometry x="710" y="390" width="16" height="16" as="geometry" />
        </mxCell>
        <mxCell id="64MHztg0PfeKgfU5btfK-18" value="" style="dashed=0;labelPosition=right;align=left;shape=mxgraph.gmdl.radiobutton;strokeColor=#009587;fillColor=#009587;strokeWidth=2;sketch=0;html=1;" vertex="1" parent="1">
          <mxGeometry x="732" y="402" width="16" height="16" as="geometry" />
        </mxCell>
        <mxCell id="64MHztg0PfeKgfU5btfK-19" value="" style="shape=ellipse;labelPosition=right;align=left;strokeColor=none;fillColor=#009587;opacity=10;sketch=0;html=1;" vertex="1" parent="1">
          <mxGeometry x="732" y="468" width="70" height="70" as="geometry" />
        </mxCell>
        <mxCell id="64MHztg0PfeKgfU5btfK-20" value="" style="dashed=0;labelPosition=right;align=left;shape=mxgraph.gmdl.radiobutton;strokeColor=#009587;fillColor=#009587;strokeWidth=2;sketch=0;html=1;" vertex="1" parent="1">
          <mxGeometry x="775" y="494" width="16" height="16" as="geometry" />
        </mxCell>
        <mxCell id="64MHztg0PfeKgfU5btfK-21" value="" style="dashed=0;labelPosition=right;align=left;shape=mxgraph.gmdl.radiobutton;strokeColor=#009587;fillColor=#009587;strokeWidth=2;sketch=0;html=1;" vertex="1" parent="1">
          <mxGeometry x="740" y="502" width="16" height="16" as="geometry" />
        </mxCell>
        <mxCell id="64MHztg0PfeKgfU5btfK-22" value="" style="dashed=0;labelPosition=right;align=left;shape=mxgraph.gmdl.radiobutton;strokeColor=#009587;fillColor=#009587;strokeWidth=2;sketch=0;html=1;" vertex="1" parent="1">
          <mxGeometry x="759" y="516" width="16" height="16" as="geometry" />
        </mxCell>
        <mxCell id="64MHztg0PfeKgfU5btfK-23" value="" style="dashed=0;labelPosition=right;align=left;shape=mxgraph.gmdl.radiobutton;strokeColor=#009587;fillColor=#009587;strokeWidth=2;sketch=0;html=1;" vertex="1" parent="1">
          <mxGeometry x="754" y="480" width="16" height="16" as="geometry" />
        </mxCell>
        <mxCell id="64MHztg0PfeKgfU5btfK-24" value="" style="shape=ellipse;labelPosition=right;align=left;strokeColor=none;fillColor=#009587;opacity=10;sketch=0;html=1;" vertex="1" parent="1">
          <mxGeometry x="815" y="468" width="70" height="70" as="geometry" />
        </mxCell>
        <mxCell id="64MHztg0PfeKgfU5btfK-25" value="" style="dashed=0;labelPosition=right;align=left;shape=mxgraph.gmdl.radiobutton;strokeColor=#009587;fillColor=#009587;strokeWidth=2;sketch=0;html=1;" vertex="1" parent="1">
          <mxGeometry x="858" y="494" width="16" height="16" as="geometry" />
        </mxCell>
        <mxCell id="64MHztg0PfeKgfU5btfK-26" value="" style="dashed=0;labelPosition=right;align=left;shape=mxgraph.gmdl.radiobutton;strokeColor=#009587;fillColor=#009587;strokeWidth=2;sketch=0;html=1;" vertex="1" parent="1">
          <mxGeometry x="823" y="502" width="16" height="16" as="geometry" />
        </mxCell>
        <mxCell id="64MHztg0PfeKgfU5btfK-27" value="" style="dashed=0;labelPosition=right;align=left;shape=mxgraph.gmdl.radiobutton;strokeColor=#009587;fillColor=#009587;strokeWidth=2;sketch=0;html=1;" vertex="1" parent="1">
          <mxGeometry x="842" y="516" width="16" height="16" as="geometry" />
        </mxCell>
        <mxCell id="64MHztg0PfeKgfU5btfK-28" value="" style="dashed=0;labelPosition=right;align=left;shape=mxgraph.gmdl.radiobutton;strokeColor=#009587;fillColor=#009587;strokeWidth=2;sketch=0;html=1;" vertex="1" parent="1">
          <mxGeometry x="837" y="480" width="16" height="16" as="geometry" />
        </mxCell>
        <mxCell id="64MHztg0PfeKgfU5btfK-29" value="" style="rounded=1;fillColor=#ffffff;strokeColor=#DFE1E5;shadow=1;html=1;arcSize=4;sketch=1;hachureGap=4;pointerEvents=0;fontFamily=Architects Daughter;fontSource=https%3A%2F%2Ffonts.googleapis.com%2Fcss%3Ffamily%3DArchitects%2BDaughter;fontSize=20;" vertex="1" parent="1">
          <mxGeometry x="950" y="396" width="200" height="113.5" as="geometry" />
        </mxCell>
        <mxCell id="64MHztg0PfeKgfU5btfK-30" value="" style="html=1;shadow=0;dashed=0;shape=mxgraph.atlassian.x;strokeColor=#B3B3B3;strokeWidth=2;sketch=1;hachureGap=4;pointerEvents=0;fontFamily=Architects Daughter;fontSource=https%3A%2F%2Ffonts.googleapis.com%2Fcss%3Ffamily%3DArchitects%2BDaughter;fontSize=20;" vertex="1" parent="64MHztg0PfeKgfU5btfK-29">
          <mxGeometry x="1" width="14" height="14" relative="1" as="geometry">
            <mxPoint x="-30" y="10" as="offset" />
          </mxGeometry>
        </mxCell>
        <mxCell id="64MHztg0PfeKgfU5btfK-31" value="&lt;span style=&quot;font-size: 12px;&quot;&gt;5 People killed in Syria&lt;/span&gt;" style="html=1;shadow=0;dashed=0;shape=mxgraph.atlassian.checkbox;fillColor=#36B37E;strokeColor=none;html=1;fontSize=14;fontStyle=0;labelPosition=right;align=left;spacingLeft=20;sketch=0;hachureGap=4;pointerEvents=0;fontFamily=Architects Daughter;fontSource=https%3A%2F%2Ffonts.googleapis.com%2Fcss%3Ffamily%3DArchitects%2BDaughter;" vertex="1" parent="64MHztg0PfeKgfU5btfK-29">
          <mxGeometry x="14.545454545454541" y="46.24074074074074" width="10.18181818181818" height="11.77037037037037" as="geometry" />
        </mxCell>
        <mxCell id="64MHztg0PfeKgfU5btfK-32" value="&lt;font style=&quot;font-size: 12px;&quot;&gt;Massive Fire in Museum&lt;/font&gt;" style="html=1;shadow=0;dashed=0;shape=mxgraph.atlassian.checkbox;fillColor=#36B37E;strokeColor=none;html=1;fontSize=14;fontStyle=0;labelPosition=right;align=left;spacingLeft=20;sketch=0;hachureGap=4;pointerEvents=0;fontFamily=Architects Daughter;fontSource=https%3A%2F%2Ffonts.googleapis.com%2Fcss%3Ffamily%3DArchitects%2BDaughter;" vertex="1" parent="64MHztg0PfeKgfU5btfK-29">
          <mxGeometry x="14.545454545454541" y="71.46296296296296" width="10.18181818181818" height="11.77037037037037" as="geometry" />
        </mxCell>
        <mxCell id="64MHztg0PfeKgfU5btfK-33" value="&lt;span style=&quot;font-size: 12px;&quot;&gt;An Aireplane was Hijacked&lt;/span&gt;" style="html=1;shadow=0;dashed=0;shape=mxgraph.atlassian.checkbox;fillColor=#36B37E;strokeColor=none;html=1;fontSize=14;fontStyle=0;labelPosition=right;align=left;spacingLeft=20;sketch=0;hachureGap=4;pointerEvents=0;fontFamily=Architects Daughter;fontSource=https%3A%2F%2Ffonts.googleapis.com%2Fcss%3Ffamily%3DArchitects%2BDaughter;" vertex="1" parent="64MHztg0PfeKgfU5btfK-29">
          <mxGeometry x="14.545454545454596" y="24.000740740740724" width="10.18181818181818" height="11.77037037037037" as="geometry" />
        </mxCell>
        <mxCell id="64MHztg0PfeKgfU5btfK-34" value="Location Inference Module" style="rounded=0;whiteSpace=wrap;html=1;fillColor=#dae8fc;strokeColor=#6c8ebf;" vertex="1" parent="1">
          <mxGeometry x="1270" y="546" width="120" height="60" as="geometry" />
        </mxCell>
        <mxCell id="64MHztg0PfeKgfU5btfK-35" style="edgeStyle=orthogonalEdgeStyle;rounded=0;orthogonalLoop=1;jettySize=auto;html=1;endArrow=block;endFill=0;dashed=1;dashPattern=8 8;" edge="1" parent="1" source="64MHztg0PfeKgfU5btfK-2" target="64MHztg0PfeKgfU5btfK-34">
          <mxGeometry relative="1" as="geometry">
            <mxPoint x="755" y="587" as="sourcePoint" />
            <mxPoint x="1010" y="586" as="targetPoint" />
          </mxGeometry>
        </mxCell>
        <mxCell id="64MHztg0PfeKgfU5btfK-36" value="" style="verticalLabelPosition=bottom;shadow=0;dashed=0;align=center;html=1;verticalAlign=top;strokeWidth=1;shape=mxgraph.mockup.misc.map;" vertex="1" parent="1">
          <mxGeometry x="1255" y="380" width="150" height="150" as="geometry" />
        </mxCell>
        <mxCell id="64MHztg0PfeKgfU5btfK-37" value="" style="sketch=0;html=1;aspect=fixed;strokeColor=none;shadow=0;fillColor=#3B8DF1;verticalAlign=top;labelPosition=center;verticalLabelPosition=bottom;shape=mxgraph.gcp2.maps_api" vertex="1" parent="1">
          <mxGeometry x="1290" y="400" width="18.3" height="30" as="geometry" />
        </mxCell>
        <mxCell id="64MHztg0PfeKgfU5btfK-38" value="" style="sketch=0;html=1;aspect=fixed;strokeColor=none;shadow=0;fillColor=#3B8DF1;verticalAlign=top;labelPosition=center;verticalLabelPosition=bottom;shape=mxgraph.gcp2.maps_api" vertex="1" parent="1">
          <mxGeometry x="1360" y="424" width="18.3" height="30" as="geometry" />
        </mxCell>
        <mxCell id="64MHztg0PfeKgfU5btfK-39" value="" style="sketch=0;html=1;aspect=fixed;strokeColor=none;shadow=0;fillColor=#3B8DF1;verticalAlign=top;labelPosition=center;verticalLabelPosition=bottom;shape=mxgraph.gcp2.maps_api" vertex="1" parent="1">
          <mxGeometry x="1308.3" y="450" width="18.3" height="30" as="geometry" />
        </mxCell>
      </root>
    </mxGraphModel>
  </diagram>
  <diagram id="E2pXgNqjgS7gbg0zt4xh" name="Page-10">
    <mxGraphModel dx="1485" dy="414" grid="1" gridSize="10" guides="1" tooltips="1" connect="1" arrows="1" fold="1" page="1" pageScale="1" pageWidth="850" pageHeight="1100" math="0" shadow="0">
      <root>
        <mxCell id="0" />
        <mxCell id="1" parent="0" />
        <mxCell id="vnj4FF3pQqbQ_OO5GXXU-2" style="edgeStyle=orthogonalEdgeStyle;rounded=0;orthogonalLoop=1;jettySize=auto;html=1;exitX=0.5;exitY=1;exitDx=0;exitDy=0;fontFamily=Comic Sans MS;" edge="1" parent="1" source="vnj4FF3pQqbQ_OO5GXXU-1" target="eBid-KI6ghzbujVKtBwj-2">
          <mxGeometry relative="1" as="geometry">
            <mxPoint x="630" y="240" as="targetPoint" />
          </mxGeometry>
        </mxCell>
        <mxCell id="vnj4FF3pQqbQ_OO5GXXU-1" value="&lt;font&gt;Data Sources&lt;/font&gt;" style="shape=process;whiteSpace=wrap;html=1;backgroundOutline=1;fillColor=#dae8fc;strokeColor=#6c8ebf;fontFamily=Comic Sans MS;" vertex="1" parent="1">
          <mxGeometry x="570" y="90" width="120" height="60" as="geometry" />
        </mxCell>
        <mxCell id="eBid-KI6ghzbujVKtBwj-1" value="&lt;font&gt;&lt;span style=&quot;text-wrap-mode: nowrap;&quot;&gt;&amp;nbsp; &amp;nbsp; &amp;nbsp;Keywords, users nammes, channels, ...&lt;/span&gt;&lt;/font&gt;" style="shape=note;whiteSpace=wrap;html=1;backgroundOutline=1;fontColor=#000000;darkOpacity=0.05;fillColor=#FFF9B2;strokeColor=none;fillStyle=solid;direction=west;gradientDirection=north;gradientColor=#FFF2A1;shadow=1;size=20;pointerEvents=1;align=left;fontFamily=Comic Sans MS;" vertex="1" parent="1">
          <mxGeometry x="515" y="20" width="230" height="50" as="geometry" />
        </mxCell>
        <mxCell id="eBid-KI6ghzbujVKtBwj-5" style="edgeStyle=orthogonalEdgeStyle;rounded=0;orthogonalLoop=1;jettySize=auto;html=1;exitX=0;exitY=0.5;exitDx=0;exitDy=0;fontFamily=Comic Sans MS;" edge="1" parent="1" source="eBid-KI6ghzbujVKtBwj-2" target="eBid-KI6ghzbujVKtBwj-6">
          <mxGeometry relative="1" as="geometry">
            <mxPoint x="430" y="270" as="targetPoint" />
          </mxGeometry>
        </mxCell>
        <mxCell id="eBid-KI6ghzbujVKtBwj-17" style="edgeStyle=orthogonalEdgeStyle;rounded=0;orthogonalLoop=1;jettySize=auto;html=1;exitX=1;exitY=0.5;exitDx=0;exitDy=0;entryX=1;entryY=0.5;entryDx=0;entryDy=0;fontFamily=Comic Sans MS;" edge="1" parent="1" source="eBid-KI6ghzbujVKtBwj-2" target="vnj4FF3pQqbQ_OO5GXXU-1">
          <mxGeometry relative="1" as="geometry">
            <Array as="points">
              <mxPoint x="840" y="270" />
              <mxPoint x="840" y="120" />
            </Array>
          </mxGeometry>
        </mxCell>
        <mxCell id="eBid-KI6ghzbujVKtBwj-2" value="&lt;font&gt;Scraping Manager&lt;/font&gt;" style="rounded=0;whiteSpace=wrap;html=1;fillColor=#dae8fc;strokeColor=#6c8ebf;fontFamily=Comic Sans MS;" vertex="1" parent="1">
          <mxGeometry x="570" y="240" width="120" height="60" as="geometry" />
        </mxCell>
        <mxCell id="eBid-KI6ghzbujVKtBwj-4" value="&lt;font&gt;1. Get General Keywords&amp;nbsp;&lt;/font&gt;" style="text;html=1;align=center;verticalAlign=middle;resizable=0;points=[];autosize=1;strokeColor=none;fillColor=none;fontFamily=Comic Sans MS;" vertex="1" parent="1">
          <mxGeometry x="620" y="180" width="160" height="30" as="geometry" />
        </mxCell>
        <mxCell id="eBid-KI6ghzbujVKtBwj-9" style="edgeStyle=orthogonalEdgeStyle;rounded=0;orthogonalLoop=1;jettySize=auto;html=1;fontFamily=Comic Sans MS;" edge="1" parent="1" source="eBid-KI6ghzbujVKtBwj-6">
          <mxGeometry relative="1" as="geometry">
            <mxPoint x="80" y="269.5" as="targetPoint" />
            <mxPoint x="230" y="269.5" as="sourcePoint" />
          </mxGeometry>
        </mxCell>
        <mxCell id="eBid-KI6ghzbujVKtBwj-10" value="&lt;font&gt;3. Applly Search for them&lt;/font&gt;" style="edgeLabel;html=1;align=center;verticalAlign=middle;resizable=0;points=[];fontFamily=Comic Sans MS;" vertex="1" connectable="0" parent="eBid-KI6ghzbujVKtBwj-9">
          <mxGeometry x="-0.0311" y="-9" relative="1" as="geometry">
            <mxPoint as="offset" />
          </mxGeometry>
        </mxCell>
        <mxCell id="eBid-KI6ghzbujVKtBwj-14" style="edgeStyle=orthogonalEdgeStyle;rounded=0;orthogonalLoop=1;jettySize=auto;html=1;exitX=0.75;exitY=1;exitDx=0;exitDy=0;entryX=0.5;entryY=1;entryDx=0;entryDy=0;fontFamily=Comic Sans MS;" edge="1" parent="1" source="eBid-KI6ghzbujVKtBwj-6" target="eBid-KI6ghzbujVKtBwj-2">
          <mxGeometry relative="1" as="geometry">
            <Array as="points">
              <mxPoint x="330" y="350" />
              <mxPoint x="630" y="350" />
            </Array>
          </mxGeometry>
        </mxCell>
        <mxCell id="eBid-KI6ghzbujVKtBwj-6" value="&lt;font&gt;Scraping Agent&lt;/font&gt;" style="rounded=0;whiteSpace=wrap;html=1;fillColor=#dae8fc;strokeColor=#6c8ebf;fontFamily=Comic Sans MS;" vertex="1" parent="1">
          <mxGeometry x="240" y="240" width="120" height="60" as="geometry" />
        </mxCell>
        <mxCell id="eBid-KI6ghzbujVKtBwj-7" value="&lt;font&gt;2. Send Tasks to Scraping Agent&lt;/font&gt;" style="text;html=1;align=center;verticalAlign=middle;resizable=0;points=[];autosize=1;strokeColor=none;fillColor=none;fontFamily=Comic Sans MS;" vertex="1" parent="1">
          <mxGeometry x="370" y="250" width="210" height="30" as="geometry" />
        </mxCell>
        <mxCell id="eBid-KI6ghzbujVKtBwj-12" style="edgeStyle=orthogonalEdgeStyle;rounded=0;orthogonalLoop=1;jettySize=auto;html=1;exitX=0.55;exitY=0.95;exitDx=0;exitDy=0;exitPerimeter=0;entryX=0.5;entryY=1;entryDx=0;entryDy=0;fontFamily=Comic Sans MS;" edge="1" parent="1" source="eBid-KI6ghzbujVKtBwj-11" target="eBid-KI6ghzbujVKtBwj-6">
          <mxGeometry relative="1" as="geometry">
            <Array as="points">
              <mxPoint x="32" y="350" />
              <mxPoint x="300" y="350" />
            </Array>
          </mxGeometry>
        </mxCell>
        <mxCell id="eBid-KI6ghzbujVKtBwj-11" value="&lt;font&gt;Social Platforms&lt;/font&gt;" style="ellipse;shape=cloud;whiteSpace=wrap;html=1;fillColor=#d5e8d4;strokeColor=#82b366;fontFamily=Comic Sans MS;" vertex="1" parent="1">
          <mxGeometry x="-40" y="230" width="130" height="80" as="geometry" />
        </mxCell>
        <mxCell id="eBid-KI6ghzbujVKtBwj-13" value="&lt;font&gt;4.Return Social&amp;nbsp; Messages&lt;/font&gt;" style="text;html=1;align=center;verticalAlign=middle;resizable=0;points=[];autosize=1;strokeColor=none;fillColor=none;fontFamily=Comic Sans MS;" vertex="1" parent="1">
          <mxGeometry x="70" y="330" width="170" height="30" as="geometry" />
        </mxCell>
        <mxCell id="eBid-KI6ghzbujVKtBwj-15" value="&lt;font&gt;5. Return the Top K Named Entity&lt;/font&gt;" style="text;html=1;align=center;verticalAlign=middle;resizable=0;points=[];autosize=1;strokeColor=none;fillColor=none;fontFamily=Comic Sans MS;" vertex="1" parent="1">
          <mxGeometry x="380" y="330" width="210" height="30" as="geometry" />
        </mxCell>
        <mxCell id="eBid-KI6ghzbujVKtBwj-18" value="&lt;font&gt;6. Augment the Data Sources&lt;/font&gt;" style="text;html=1;align=center;verticalAlign=middle;resizable=0;points=[];autosize=1;strokeColor=none;fillColor=none;fontFamily=Comic Sans MS;" vertex="1" parent="1">
          <mxGeometry x="710" y="100" width="190" height="30" as="geometry" />
        </mxCell>
      </root>
    </mxGraphModel>
  </diagram>
  <diagram id="XpTwx61cuqo49xyrDAA1" name="Page-11">
    <mxGraphModel dx="-56" dy="518" grid="1" gridSize="10" guides="1" tooltips="1" connect="1" arrows="1" fold="1" page="1" pageScale="1" pageWidth="850" pageHeight="1100" math="0" shadow="0">
      <root>
        <mxCell id="0" />
        <mxCell id="1" parent="0" />
        <mxCell id="CP5xltB5m-ygB1lcicnZ-1" style="edgeStyle=orthogonalEdgeStyle;rounded=0;orthogonalLoop=1;jettySize=auto;html=1;exitX=-0.024;exitY=0.9;exitDx=0;exitDy=0;endArrow=block;endFill=0;dashed=1;dashPattern=8 8;exitPerimeter=0;" edge="1" parent="1" target="CP5xltB5m-ygB1lcicnZ-9" source="CP5xltB5m-ygB1lcicnZ-10">
          <mxGeometry relative="1" as="geometry">
            <mxPoint x="1100" y="286" as="sourcePoint" />
          </mxGeometry>
        </mxCell>
        <mxCell id="CP5xltB5m-ygB1lcicnZ-9" value="Summerization Module" style="rounded=0;whiteSpace=wrap;html=1;fillColor=#dae8fc;strokeColor=#6c8ebf;" vertex="1" parent="1">
          <mxGeometry x="1490" y="256" width="120" height="60" as="geometry" />
        </mxCell>
        <mxCell id="CP5xltB5m-ygB1lcicnZ-10" value="Detected Events" style="text;html=1;align=center;verticalAlign=middle;resizable=0;points=[];autosize=1;strokeColor=none;fillColor=none;" vertex="1" parent="1">
          <mxGeometry x="1238" y="260" width="110" height="30" as="geometry" />
        </mxCell>
        <mxCell id="CP5xltB5m-ygB1lcicnZ-11" value="" style="shape=ellipse;labelPosition=right;align=left;strokeColor=none;fillColor=#009587;opacity=10;sketch=0;html=1;" vertex="1" parent="1">
          <mxGeometry x="1300" y="70" width="80" height="100" as="geometry" />
        </mxCell>
        <mxCell id="CP5xltB5m-ygB1lcicnZ-12" value="" style="dashed=0;labelPosition=right;align=left;shape=mxgraph.gmdl.radiobutton;strokeColor=#009587;fillColor=#009587;strokeWidth=2;sketch=0;html=1;" vertex="1" parent="1">
          <mxGeometry x="1353" y="94" width="16" height="16" as="geometry" />
        </mxCell>
        <mxCell id="CP5xltB5m-ygB1lcicnZ-13" value="" style="dashed=0;labelPosition=right;align=left;shape=mxgraph.gmdl.radiobutton;strokeColor=#009587;fillColor=#009587;strokeWidth=2;sketch=0;html=1;" vertex="1" parent="1">
          <mxGeometry x="1353" y="126" width="16" height="16" as="geometry" />
        </mxCell>
        <mxCell id="CP5xltB5m-ygB1lcicnZ-14" value="" style="dashed=0;labelPosition=right;align=left;shape=mxgraph.gmdl.radiobutton;strokeColor=#009587;fillColor=#009587;strokeWidth=2;sketch=0;html=1;" vertex="1" parent="1">
          <mxGeometry x="1337" y="150" width="16" height="16" as="geometry" />
        </mxCell>
        <mxCell id="CP5xltB5m-ygB1lcicnZ-15" value="" style="dashed=0;labelPosition=right;align=left;shape=mxgraph.gmdl.radiobutton;strokeColor=#009587;fillColor=#009587;strokeWidth=2;sketch=0;html=1;" vertex="1" parent="1">
          <mxGeometry x="1318" y="134" width="16" height="16" as="geometry" />
        </mxCell>
        <mxCell id="CP5xltB5m-ygB1lcicnZ-16" value="" style="dashed=0;labelPosition=right;align=left;shape=mxgraph.gmdl.radiobutton;strokeColor=#009587;fillColor=#009587;strokeWidth=2;sketch=0;html=1;" vertex="1" parent="1">
          <mxGeometry x="1310" y="100" width="16" height="16" as="geometry" />
        </mxCell>
        <mxCell id="CP5xltB5m-ygB1lcicnZ-17" value="" style="dashed=0;labelPosition=right;align=left;shape=mxgraph.gmdl.radiobutton;strokeColor=#009587;fillColor=#009587;strokeWidth=2;sketch=0;html=1;" vertex="1" parent="1">
          <mxGeometry x="1332" y="112" width="16" height="16" as="geometry" />
        </mxCell>
        <mxCell id="CP5xltB5m-ygB1lcicnZ-18" value="" style="dashed=0;labelPosition=right;align=left;shape=mxgraph.gmdl.radiobutton;strokeColor=#009587;fillColor=#009587;strokeWidth=2;sketch=0;html=1;" vertex="1" parent="1">
          <mxGeometry x="1332" y="78" width="16" height="16" as="geometry" />
        </mxCell>
        <mxCell id="CP5xltB5m-ygB1lcicnZ-20" value="" style="shape=ellipse;labelPosition=right;align=left;strokeColor=none;fillColor=#009587;opacity=10;sketch=0;html=1;" vertex="1" parent="1">
          <mxGeometry x="1190" y="70" width="80" height="96" as="geometry" />
        </mxCell>
        <mxCell id="CP5xltB5m-ygB1lcicnZ-21" value="" style="dashed=0;labelPosition=right;align=left;shape=mxgraph.gmdl.radiobutton;strokeColor=#009587;fillColor=#009587;strokeWidth=2;sketch=0;html=1;" vertex="1" parent="1">
          <mxGeometry x="1216" y="80" width="16" height="16" as="geometry" />
        </mxCell>
        <mxCell id="CP5xltB5m-ygB1lcicnZ-22" value="" style="dashed=0;labelPosition=right;align=left;shape=mxgraph.gmdl.radiobutton;strokeColor=#009587;fillColor=#009587;strokeWidth=2;sketch=0;html=1;" vertex="1" parent="1">
          <mxGeometry x="1238" y="90" width="16" height="16" as="geometry" />
        </mxCell>
        <mxCell id="CP5xltB5m-ygB1lcicnZ-23" value="" style="dashed=0;labelPosition=right;align=left;shape=mxgraph.gmdl.radiobutton;strokeColor=#009587;fillColor=#009587;strokeWidth=2;sketch=0;html=1;" vertex="1" parent="1">
          <mxGeometry x="1230" y="134" width="16" height="16" as="geometry" />
        </mxCell>
        <mxCell id="CP5xltB5m-ygB1lcicnZ-24" value="" style="dashed=0;labelPosition=right;align=left;shape=mxgraph.gmdl.radiobutton;strokeColor=#009587;fillColor=#009587;strokeWidth=2;sketch=0;html=1;" vertex="1" parent="1">
          <mxGeometry x="1208" y="134" width="16" height="16" as="geometry" />
        </mxCell>
        <mxCell id="CP5xltB5m-ygB1lcicnZ-25" value="" style="dashed=0;labelPosition=right;align=left;shape=mxgraph.gmdl.radiobutton;strokeColor=#009587;fillColor=#009587;strokeWidth=2;sketch=0;html=1;" vertex="1" parent="1">
          <mxGeometry x="1200" y="100" width="16" height="16" as="geometry" />
        </mxCell>
        <mxCell id="CP5xltB5m-ygB1lcicnZ-26" value="" style="dashed=0;labelPosition=right;align=left;shape=mxgraph.gmdl.radiobutton;strokeColor=#009587;fillColor=#009587;strokeWidth=2;sketch=0;html=1;" vertex="1" parent="1">
          <mxGeometry x="1222" y="112" width="16" height="16" as="geometry" />
        </mxCell>
        <mxCell id="CP5xltB5m-ygB1lcicnZ-27" value="" style="shape=ellipse;labelPosition=right;align=left;strokeColor=none;fillColor=#009587;opacity=10;sketch=0;html=1;" vertex="1" parent="1">
          <mxGeometry x="1222" y="178" width="70" height="70" as="geometry" />
        </mxCell>
        <mxCell id="CP5xltB5m-ygB1lcicnZ-28" value="" style="dashed=0;labelPosition=right;align=left;shape=mxgraph.gmdl.radiobutton;strokeColor=#009587;fillColor=#009587;strokeWidth=2;sketch=0;html=1;" vertex="1" parent="1">
          <mxGeometry x="1265" y="204" width="16" height="16" as="geometry" />
        </mxCell>
        <mxCell id="CP5xltB5m-ygB1lcicnZ-29" value="" style="dashed=0;labelPosition=right;align=left;shape=mxgraph.gmdl.radiobutton;strokeColor=#009587;fillColor=#009587;strokeWidth=2;sketch=0;html=1;" vertex="1" parent="1">
          <mxGeometry x="1230" y="212" width="16" height="16" as="geometry" />
        </mxCell>
        <mxCell id="CP5xltB5m-ygB1lcicnZ-30" value="" style="dashed=0;labelPosition=right;align=left;shape=mxgraph.gmdl.radiobutton;strokeColor=#009587;fillColor=#009587;strokeWidth=2;sketch=0;html=1;" vertex="1" parent="1">
          <mxGeometry x="1249" y="226" width="16" height="16" as="geometry" />
        </mxCell>
        <mxCell id="CP5xltB5m-ygB1lcicnZ-31" value="" style="dashed=0;labelPosition=right;align=left;shape=mxgraph.gmdl.radiobutton;strokeColor=#009587;fillColor=#009587;strokeWidth=2;sketch=0;html=1;" vertex="1" parent="1">
          <mxGeometry x="1244" y="190" width="16" height="16" as="geometry" />
        </mxCell>
        <mxCell id="CP5xltB5m-ygB1lcicnZ-32" value="" style="shape=ellipse;labelPosition=right;align=left;strokeColor=none;fillColor=#009587;opacity=10;sketch=0;html=1;" vertex="1" parent="1">
          <mxGeometry x="1305" y="178" width="70" height="70" as="geometry" />
        </mxCell>
        <mxCell id="CP5xltB5m-ygB1lcicnZ-33" value="" style="dashed=0;labelPosition=right;align=left;shape=mxgraph.gmdl.radiobutton;strokeColor=#009587;fillColor=#009587;strokeWidth=2;sketch=0;html=1;" vertex="1" parent="1">
          <mxGeometry x="1348" y="204" width="16" height="16" as="geometry" />
        </mxCell>
        <mxCell id="CP5xltB5m-ygB1lcicnZ-34" value="" style="dashed=0;labelPosition=right;align=left;shape=mxgraph.gmdl.radiobutton;strokeColor=#009587;fillColor=#009587;strokeWidth=2;sketch=0;html=1;" vertex="1" parent="1">
          <mxGeometry x="1313" y="212" width="16" height="16" as="geometry" />
        </mxCell>
        <mxCell id="CP5xltB5m-ygB1lcicnZ-35" value="" style="dashed=0;labelPosition=right;align=left;shape=mxgraph.gmdl.radiobutton;strokeColor=#009587;fillColor=#009587;strokeWidth=2;sketch=0;html=1;" vertex="1" parent="1">
          <mxGeometry x="1332" y="226" width="16" height="16" as="geometry" />
        </mxCell>
        <mxCell id="CP5xltB5m-ygB1lcicnZ-36" value="" style="dashed=0;labelPosition=right;align=left;shape=mxgraph.gmdl.radiobutton;strokeColor=#009587;fillColor=#009587;strokeWidth=2;sketch=0;html=1;" vertex="1" parent="1">
          <mxGeometry x="1327" y="190" width="16" height="16" as="geometry" />
        </mxCell>
        <mxCell id="CP5xltB5m-ygB1lcicnZ-38" value="" style="rounded=1;fillColor=#ffffff;strokeColor=#DFE1E5;shadow=1;html=1;arcSize=4;sketch=1;hachureGap=4;pointerEvents=0;fontFamily=Architects Daughter;fontSource=https%3A%2F%2Ffonts.googleapis.com%2Fcss%3Ffamily%3DArchitects%2BDaughter;fontSize=20;" vertex="1" parent="1">
          <mxGeometry x="1440" y="106" width="200" height="113.5" as="geometry" />
        </mxCell>
        <mxCell id="CP5xltB5m-ygB1lcicnZ-41" value="" style="html=1;shadow=0;dashed=0;shape=mxgraph.atlassian.x;strokeColor=#B3B3B3;strokeWidth=2;sketch=1;hachureGap=4;pointerEvents=0;fontFamily=Architects Daughter;fontSource=https%3A%2F%2Ffonts.googleapis.com%2Fcss%3Ffamily%3DArchitects%2BDaughter;fontSize=20;" vertex="1" parent="CP5xltB5m-ygB1lcicnZ-38">
          <mxGeometry x="1" width="14" height="14" relative="1" as="geometry">
            <mxPoint x="-30" y="10" as="offset" />
          </mxGeometry>
        </mxCell>
        <mxCell id="CP5xltB5m-ygB1lcicnZ-42" value="&lt;span style=&quot;font-size: 12px;&quot;&gt;5 People killed in Syria&lt;/span&gt;" style="html=1;shadow=0;dashed=0;shape=mxgraph.atlassian.checkbox;fillColor=#36B37E;strokeColor=none;html=1;fontSize=14;fontStyle=0;labelPosition=right;align=left;spacingLeft=20;sketch=0;hachureGap=4;pointerEvents=0;fontFamily=Architects Daughter;fontSource=https%3A%2F%2Ffonts.googleapis.com%2Fcss%3Ffamily%3DArchitects%2BDaughter;" vertex="1" parent="CP5xltB5m-ygB1lcicnZ-38">
          <mxGeometry x="14.545454545454541" y="46.24074074074074" width="10.18181818181818" height="11.77037037037037" as="geometry" />
        </mxCell>
        <mxCell id="CP5xltB5m-ygB1lcicnZ-43" value="&lt;font style=&quot;font-size: 12px;&quot;&gt;Massive Fire in Museum&lt;/font&gt;" style="html=1;shadow=0;dashed=0;shape=mxgraph.atlassian.checkbox;fillColor=#36B37E;strokeColor=none;html=1;fontSize=14;fontStyle=0;labelPosition=right;align=left;spacingLeft=20;sketch=0;hachureGap=4;pointerEvents=0;fontFamily=Architects Daughter;fontSource=https%3A%2F%2Ffonts.googleapis.com%2Fcss%3Ffamily%3DArchitects%2BDaughter;" vertex="1" parent="CP5xltB5m-ygB1lcicnZ-38">
          <mxGeometry x="14.545454545454541" y="71.46296296296296" width="10.18181818181818" height="11.77037037037037" as="geometry" />
        </mxCell>
        <mxCell id="CP5xltB5m-ygB1lcicnZ-45" value="&lt;span style=&quot;font-size: 12px;&quot;&gt;An Aireplane was Hijacked&lt;/span&gt;" style="html=1;shadow=0;dashed=0;shape=mxgraph.atlassian.checkbox;fillColor=#36B37E;strokeColor=none;html=1;fontSize=14;fontStyle=0;labelPosition=right;align=left;spacingLeft=20;sketch=0;hachureGap=4;pointerEvents=0;fontFamily=Architects Daughter;fontSource=https%3A%2F%2Ffonts.googleapis.com%2Fcss%3Ffamily%3DArchitects%2BDaughter;" vertex="1" parent="CP5xltB5m-ygB1lcicnZ-38">
          <mxGeometry x="14.545454545454596" y="24.000740740740724" width="10.18181818181818" height="11.77037037037037" as="geometry" />
        </mxCell>
        <mxCell id="CP5xltB5m-ygB1lcicnZ-46" value="Location Inference Module" style="rounded=0;whiteSpace=wrap;html=1;fillColor=#dae8fc;strokeColor=#6c8ebf;" vertex="1" parent="1">
          <mxGeometry x="1760" y="256" width="120" height="60" as="geometry" />
        </mxCell>
        <mxCell id="CP5xltB5m-ygB1lcicnZ-47" style="edgeStyle=orthogonalEdgeStyle;rounded=0;orthogonalLoop=1;jettySize=auto;html=1;endArrow=block;endFill=0;dashed=1;dashPattern=8 8;" edge="1" parent="1" source="CP5xltB5m-ygB1lcicnZ-9" target="CP5xltB5m-ygB1lcicnZ-46">
          <mxGeometry relative="1" as="geometry">
            <mxPoint x="1245" y="297" as="sourcePoint" />
            <mxPoint x="1500" y="296" as="targetPoint" />
          </mxGeometry>
        </mxCell>
        <mxCell id="CP5xltB5m-ygB1lcicnZ-50" value="" style="verticalLabelPosition=bottom;shadow=0;dashed=0;align=center;html=1;verticalAlign=top;strokeWidth=1;shape=mxgraph.mockup.misc.map;" vertex="1" parent="1">
          <mxGeometry x="1745" y="90" width="150" height="150" as="geometry" />
        </mxCell>
        <mxCell id="CP5xltB5m-ygB1lcicnZ-52" value="" style="sketch=0;html=1;aspect=fixed;strokeColor=none;shadow=0;fillColor=#3B8DF1;verticalAlign=top;labelPosition=center;verticalLabelPosition=bottom;shape=mxgraph.gcp2.maps_api" vertex="1" parent="1">
          <mxGeometry x="1780" y="110" width="18.3" height="30" as="geometry" />
        </mxCell>
        <mxCell id="CP5xltB5m-ygB1lcicnZ-53" value="" style="sketch=0;html=1;aspect=fixed;strokeColor=none;shadow=0;fillColor=#3B8DF1;verticalAlign=top;labelPosition=center;verticalLabelPosition=bottom;shape=mxgraph.gcp2.maps_api" vertex="1" parent="1">
          <mxGeometry x="1850" y="134" width="18.3" height="30" as="geometry" />
        </mxCell>
        <mxCell id="CP5xltB5m-ygB1lcicnZ-54" value="" style="sketch=0;html=1;aspect=fixed;strokeColor=none;shadow=0;fillColor=#3B8DF1;verticalAlign=top;labelPosition=center;verticalLabelPosition=bottom;shape=mxgraph.gcp2.maps_api" vertex="1" parent="1">
          <mxGeometry x="1798.3" y="160" width="18.3" height="30" as="geometry" />
        </mxCell>
      </root>
    </mxGraphModel>
  </diagram>
</mxfile>
